<svg width="22" height="15" viewBox="0 0 22 15" fill="none" xmlns="http://www.w3.org/2000/svg">
<path d="M22 7.5C22 7.2153 21.9034 6.94226 21.7315 6.74094C21.5596 6.53963 21.3264 6.42653 21.0833 6.42653L3.1295 6.42653L7.06383 1.81922C7.23081 1.61676 7.32321 1.3456 7.32112 1.06414C7.31903 0.782679 7.22262 0.513439 7.05267 0.31441C6.88271 0.11538 6.6528 0.00248623 6.41245 4.1008e-05C6.1721 -0.00240517 5.94055 0.105794 5.76767 0.301335L0.267668 6.74213C0.182846 6.84089 0.115532 6.9583 0.0695953 7.08763C0.0236607 7.21696 7.62939e-06 7.35564 0 7.49571V7.5C0 7.63955 0.0238323 7.7791 0.0714989 7.91006C0.117188 8.04021 0.18449 8.15843 0.269501 8.25787L5.7695 14.6987C5.94239 14.8942 6.17394 15.0024 6.41428 15C6.65463 14.9975 6.88454 14.8846 7.0545 14.6856C7.22446 14.4866 7.32086 14.2173 7.32295 13.9359C7.32504 13.6544 7.23265 13.3832 7.06567 13.1808L3.1295 8.57347L21.0833 8.57347C21.3264 8.57347 21.5596 8.46037 21.7315 8.25906C21.9034 8.05774 22 7.7847 22 7.5Z" fill="black"/>
</svg>
