<svg width="62" height="60" viewBox="0 0 62 60" fill="none" xmlns="http://www.w3.org/2000/svg">
<path opacity="0.1" d="M51.2383 0H10.6192C5.01081 0 0.464355 4.47715 0.464355 10V50C0.464355 55.5228 5.01081 60 10.6192 60H51.2383C56.8467 60 61.3931 55.5228 61.3931 50V10C61.3931 4.47715 56.8467 0 51.2383 0Z" fill="#FA8B0C"/>
<path d="M26.6858 27.5669L33.3142 34.4073" stroke="#FA8B0C" stroke-width="1.5" stroke-linecap="round" stroke-linejoin="round"/>
<path d="M33.4236 27.6699L26.5767 34.3047" stroke="#FA8B0C" stroke-width="1.5" stroke-linecap="round" stroke-linejoin="round"/>
<path fill-rule="evenodd" clip-rule="evenodd" d="M36.0914 18H23.9086C19.6619 18 17 21.0057 17 25.2607V36.7393C17 40.9943 19.6495 44 23.9086 44H36.0914C40.3505 44 43 40.9943 43 36.7393V25.2607C43 21.0057 40.3505 18 36.0914 18Z" stroke="#FA8B0C" stroke-width="1.5" stroke-linecap="round" stroke-linejoin="round"/>
</svg>
