<svg width="18" height="18" viewBox="0 0 18 18" fill="none" xmlns="http://www.w3.org/2000/svg">
<path d="M14.0376 3.88037H3.93188C4.04108 6.7504 4.3217 12.8154 4.57066 14.115C4.81962 15.4146 5.90826 16.2594 6.42147 16.5193C7.48609 16.7143 9.97895 16.9872 11.4334 16.5193C12.8878 16.0514 13.3934 14.3641 13.4644 13.5789L14.0376 3.88037Z" stroke="#ADB4D2" stroke-width="1.18746"/>
<path d="M14.0538 3.88022C14.9492 3.85856 16.7727 3.20766 16.9038 0.777344" stroke="#ADB4D2" stroke-width="1.18746"/>
<path d="M15.0857 3.63672C15.9102 3.86957 17.4246 4.82913 16.8874 6.80458C16.2978 7.00494 14.8794 7.10999 13.9229 5.92732" stroke="#ADB4D2" stroke-width="1.18746"/>
<path d="M3.94617 3.88022C3.05079 3.85856 1.22728 3.20766 1.09625 0.777344" stroke="#ADB4D2" stroke-width="1.18746"/>
<path d="M2.91437 3.63672C2.08997 3.86957 0.575474 4.82913 1.1127 6.80458C1.70234 7.00494 3.12075 7.10999 4.07727 5.92732" stroke="#ADB4D2" stroke-width="1.18746"/>
<path d="M4.45593 13.1889C5.93003 11.8676 9.79871 10.0178 13.4807 13.1889" stroke="#ADB4D2" stroke-width="1.18746"/>
<ellipse cx="11.5317" cy="7.77859" rx="0.638775" ry="0.633572" fill="#ADB4D2"/>
<ellipse cx="6.29039" cy="7.77859" rx="0.638775" ry="0.633572" fill="#ADB4D2"/>
<ellipse cx="7.27305" cy="14.5047" rx="0.638775" ry="0.633572" fill="#ADB4D2"/>
<ellipse cx="10.5815" cy="14.5047" rx="0.638775" ry="0.633572" fill="#ADB4D2"/>
</svg>
