<svg width="61" height="60" viewBox="0 0 61 60" fill="none" xmlns="http://www.w3.org/2000/svg">
<path opacity="0.1" d="M50.774 0H10.1548C4.54646 0 0 4.47715 0 10V50C0 55.5228 4.54646 60 10.1548 60H50.774C56.3823 60 60.9288 55.5228 60.9288 50V10C60.9288 4.47715 56.3823 0 50.774 0Z" fill="#4DD4FF"/>
<path d="M39.6611 30.1596L38.8472 21.992C38.8106 21.6243 38.4763 21.343 38.0761 21.343H33.3478V19.6836C33.3478 17.101 31.07 15 28.2704 15C25.4708 15 23.1931 17.101 23.1931 19.6836V21.343H18.4646C18.0644 21.343 17.7301 21.6243 17.6935 21.9919L16.0112 38.8752C15.9462 39.5285 16.1651 40.1299 16.6444 40.6145C17.1237 41.0992 17.753 41.3554 18.4641 41.3554H30.875C32.3018 43.5375 34.8966 45 37.8549 45C42.3461 45 46 41.6295 46 37.4865C46 33.9161 43.286 30.9196 39.6611 30.1596ZM24.7418 19.6836C24.7418 17.8887 26.3247 16.4286 28.2704 16.4286C30.2161 16.4286 31.7991 17.8887 31.7991 19.6836V21.343H24.7418V19.6836ZM18.4641 39.9268C18.1888 39.9268 17.9741 39.8393 17.7885 39.6517C17.6029 39.464 17.5283 39.2588 17.5534 39.0059L19.171 22.7716H23.1931V24.0739C23.1931 24.4684 23.5398 24.7882 23.9674 24.7882C24.395 24.7882 24.7418 24.4684 24.7418 24.0739V22.7716H31.7991V24.0739C31.7991 24.4684 32.1459 24.7882 32.5735 24.7882C33.0011 24.7882 33.3478 24.4684 33.3478 24.0739V22.7716H37.3698L38.0877 29.9764C38.0104 29.9744 37.9328 29.9732 37.8549 29.9732C33.3637 29.9732 29.7098 33.3437 29.7098 37.4866C29.7098 38.3404 29.8653 39.1613 30.1511 39.9268H18.4641ZM37.8549 43.5714C34.2175 43.5714 31.2584 40.8418 31.2584 37.4865C31.2584 34.1313 34.2175 31.4017 37.8549 31.4017C41.4921 31.4017 44.4513 34.1313 44.4513 37.4865C44.4513 40.8418 41.4921 43.5714 37.8549 43.5714ZM41.4938 35.2465C41.7895 35.5314 41.7789 35.9836 41.47 36.2564L37.516 39.7486C37.3664 39.8807 37.1734 39.9469 36.9804 39.9469C36.7927 39.9469 36.6049 39.8843 36.4567 39.7587L34.2515 37.8906C33.9366 37.6238 33.9157 37.1719 34.2049 36.8814C34.4942 36.5907 34.9841 36.5715 35.299 36.8384L36.9695 38.2535L40.399 35.2245C40.7078 34.9517 41.198 34.9615 41.4938 35.2465Z" fill="#00C2FF"/>
</svg>
