<svg width="51" height="28" viewBox="0 0 51 28" fill="none" xmlns="http://www.w3.org/2000/svg">
<path opacity="0.5" d="M8.48779 12.2403C10.8309 12.2403 12.7303 10.2482 12.7303 7.79081C12.7303 5.33342 10.8309 3.34131 8.48779 3.34131C6.14469 3.34131 4.24524 5.33342 4.24524 7.79081C4.24524 10.2482 6.14469 12.2403 8.48779 12.2403Z" fill="#5F63F2"/>
<path opacity="0.5" d="M14.153 15.3571C13.0536 16.2274 12.162 17.3536 11.5484 18.6469C10.9348 19.9403 10.6161 21.3654 10.6173 22.81V23.3668H1.59987C1.17706 23.3668 0.771447 23.1913 0.471664 22.8786C0.171881 22.5659 0.00230692 22.1414 7.26007e-07 21.698V20.586C-0.000381609 19.7825 0.15025 18.9867 0.443285 18.2442C0.73632 17.5017 1.16601 16.8271 1.7078 16.2589C2.24958 15.6907 2.89283 15.24 3.60078 14.9327C4.30873 14.6254 5.06749 14.4674 5.83369 14.4678H11.1394C12.2025 14.4699 13.2448 14.7774 14.153 15.3571Z" fill="#5F63F2"/>
<path opacity="0.5" d="M42.434 12.2403C44.7771 12.2403 46.6765 10.2482 46.6765 7.79081C46.6765 5.33342 44.7771 3.34131 42.434 3.34131C40.0909 3.34131 38.1914 5.33342 38.1914 7.79081C38.1914 10.2482 40.0909 12.2403 42.434 12.2403Z" fill="#5F63F2"/>
<path opacity="0.5" d="M50.923 20.5842V21.6962C50.9207 22.138 50.7523 22.5611 50.4544 22.8735C50.1565 23.186 49.7531 23.3625 49.3319 23.3649H40.3144V22.8082C40.3155 21.3628 39.9961 19.9369 39.3815 18.6431C38.7669 17.3494 37.8738 16.2233 36.7729 15.3537C37.6803 14.7719 38.723 14.4637 39.7865 14.4629H45.0922C46.6393 14.4641 48.1226 15.1096 49.216 16.2575C50.3094 17.4054 50.9234 18.9617 50.923 20.5842V20.5842Z" fill="#5F63F2"/>
<path d="M24.7255 12.203C27.9385 12.203 30.5432 9.47123 30.5432 6.10148C30.5432 2.73172 27.9385 0 24.7255 0C21.5124 0 18.9078 2.73172 18.9078 6.10148C18.9078 9.47123 21.5124 12.203 24.7255 12.203Z" fill="#5F63F2"/>
<path d="M31.2964 16.6899H19.6246C18.0779 16.6916 16.595 17.3367 15.5013 18.4837C14.4076 19.6308 13.7925 21.186 13.7909 22.8082V26.1457C13.7932 26.5875 13.9616 27.0106 14.2595 27.323C14.5574 27.6355 14.9608 27.8121 15.3821 27.8145H35.5389C35.9602 27.8121 36.3636 27.6355 36.6615 27.323C36.9594 27.0106 37.1278 26.5875 37.13 26.1457V22.8082C37.1285 21.186 36.5134 19.6308 35.4197 18.4837C34.326 17.3367 32.8431 16.6916 31.2964 16.6899V16.6899Z" fill="#5F63F2"/>
</svg>
