<svg width="20" height="20" viewBox="0 0 20 20" fill="none" xmlns="http://www.w3.org/2000/svg">
<path d="M2 15.6667V13.9007C2 13.4623 2.11312 13.0647 2.33937 12.7077C2.56561 12.3508 2.87984 12.0846 3.28205 11.9093C4.1996 11.5085 5.02602 11.2204 5.76131 11.0451C6.49661 10.8697 7.2539 10.7821 8.03318 10.7821C8.81247 10.7821 9.56662 10.8697 10.2956 11.0451C11.0246 11.2204 11.8479 11.5085 12.7655 11.9093C13.1677 12.0846 13.485 12.3508 13.7176 12.7077C13.9501 13.0647 14.0664 13.4623 14.0664 13.9007V15.6667H2ZM15.1976 15.6667V13.9007C15.1976 13.1116 14.9965 12.4635 14.5943 11.9563C14.1921 11.449 13.6642 11.0388 13.0106 10.7257C13.8778 10.8259 14.6948 10.9731 15.4615 11.1672C16.2283 11.3613 16.8504 11.5836 17.3281 11.8341C17.7428 12.0721 18.0696 12.3664 18.3084 12.7171C18.5473 13.0678 18.6667 13.4623 18.6667 13.9007V15.6667H15.1976ZM8.03318 9.63607C7.20362 9.63607 6.52489 9.37306 5.99698 8.84702C5.46908 8.32099 5.20513 7.64466 5.20513 6.81804C5.20513 5.99141 5.46908 5.31508 5.99698 4.78905C6.52489 4.26302 7.20362 4 8.03318 4C8.86275 4 9.54148 4.26302 10.0694 4.78905C10.5973 5.31508 10.8612 5.99141 10.8612 6.81804C10.8612 7.64466 10.5973 8.32099 10.0694 8.84702C9.54148 9.37306 8.86275 9.63607 8.03318 9.63607ZM14.8205 6.81804C14.8205 7.64466 14.5566 8.32099 14.0287 8.84702C13.5008 9.37306 12.822 9.63607 11.9925 9.63607C11.8542 9.63607 11.7002 9.62668 11.5305 9.60789C11.3609 9.5891 11.2069 9.55466 11.0686 9.50456C11.3703 9.19145 11.5997 8.80632 11.7568 8.34917C11.9139 7.89202 11.9925 7.38164 11.9925 6.81804C11.9925 6.25443 11.9139 5.75658 11.7568 5.32448C11.5997 4.89238 11.3703 4.49472 11.0686 4.13151C11.2069 4.09393 11.3609 4.06262 11.5305 4.03757C11.7002 4.01252 11.8542 4 11.9925 4C12.822 4 13.5008 4.26302 14.0287 4.78905C14.5566 5.31508 14.8205 5.99141 14.8205 6.81804ZM3.13122 14.5395H12.9351V13.9007C12.9351 13.7003 12.8754 13.5062 12.756 13.3183C12.6366 13.1304 12.4889 12.9989 12.313 12.9238C11.408 12.523 10.6476 12.2537 10.0317 12.1159C9.41579 11.9782 8.74962 11.9093 8.03318 11.9093C7.31674 11.9093 6.64744 11.9782 6.02526 12.1159C5.40309 12.2537 4.63952 12.523 3.73454 12.9238C3.55857 12.9989 3.41403 13.1304 3.30091 13.3183C3.18778 13.5062 3.13122 13.7003 3.13122 13.9007V14.5395ZM8.03318 8.50886C8.52338 8.50886 8.92873 8.34917 9.24925 8.02979C9.56976 7.71041 9.73002 7.3065 9.73002 6.81804C9.73002 6.32958 9.56976 5.92566 9.24925 5.60628C8.92873 5.2869 8.52338 5.12721 8.03318 5.12721C7.54299 5.12721 7.13763 5.2869 6.81712 5.60628C6.49661 5.92566 6.33635 6.32958 6.33635 6.81804C6.33635 7.3065 6.49661 7.71041 6.81712 8.02979C7.13763 8.34917 7.54299 8.50886 8.03318 8.50886Z" fill="#3BC700"/>
</svg>
