<svg width="20" height="20" viewBox="0 0 20 20" fill="none" xmlns="http://www.w3.org/2000/svg">
<path d="M17.28 7.28339L10.661 2.13639C10.5475 2.048 10.4078 2 10.264 2C10.1202 2 9.98046 2.048 9.867 2.13639L3.25 7.28339C3.17223 7.34373 3.10927 7.42105 3.06594 7.50944C3.02261 7.59783 3.00006 7.69495 3 7.79339V15.8824C3.00053 16.4437 3.22374 16.9818 3.62064 17.3787C4.01754 17.7756 4.5557 17.9989 5.117 17.9994H15.417C15.9783 17.9989 16.5165 17.7756 16.9134 17.3787C17.3103 16.9818 17.5335 16.4437 17.534 15.8824V7.79339C17.5335 7.69462 17.5103 7.59728 17.4663 7.50887C17.4222 7.42046 17.3585 7.34332 17.28 7.28339V7.28339ZM16.237 15.8834C16.2367 16.1018 16.1498 16.3113 15.9954 16.4657C15.8409 16.6202 15.6315 16.7071 15.413 16.7074H5.113C4.89454 16.7071 4.68511 16.6202 4.53064 16.4657C4.37616 16.3113 4.28926 16.1018 4.289 15.8834V8.11039L10.269 3.46539L16.241 8.11039L16.237 15.8834Z" fill="#3BC700"/>
<path d="M12.4711 9.3545H8.05908C7.88775 9.3545 7.72344 9.42256 7.60229 9.5437C7.48115 9.66485 7.41309 9.82916 7.41309 10.0005V17.3545C7.41309 17.526 7.48119 17.6904 7.60243 17.8116C7.72367 17.9329 7.88812 18.001 8.05959 18.001C8.23105 18.001 8.39548 17.9329 8.51672 17.8116C8.63797 17.6904 8.70609 17.526 8.70609 17.3545V10.6475H11.8261V17.3545C11.8261 17.526 11.8942 17.6904 12.0154 17.8116C12.1367 17.9329 12.3011 18.001 12.4726 18.001C12.644 18.001 12.8085 17.9329 12.9297 17.8116C13.051 17.6904 13.1191 17.526 13.1191 17.3545V10.0005C13.1191 9.91549 13.1023 9.83132 13.0697 9.75281C13.0371 9.6743 12.9894 9.603 12.9292 9.54299C12.869 9.48297 12.7975 9.43544 12.7189 9.40309C12.6403 9.37075 12.5561 9.35423 12.4711 9.3545V9.3545Z" fill="#3BC700"/>
</svg>
