<svg width="650" height="1080" viewBox="0 0 650 1080" fill="none" xmlns="http://www.w3.org/2000/svg">
<path opacity="0.1" d="M0 0H580C598.565 0 616.37 7.96498 629.497 22.1427C642.625 36.3205 650 55.5496 650 75.6V1004.4C650 1024.45 642.625 1043.68 629.497 1057.86C616.37 1072.04 598.565 1080 580 1080H0V0Z" fill="url(#paint0_linear_62_873)"/>
<g clip-path="url(#clip0_62_873)">
<path d="M554.451 745.567L444.101 745.355L341.971 745.158L304.413 745.085L157.75 744.805C157.75 744.805 119.765 716.245 107.382 671.219C103.937 658.813 102.715 645.593 104.061 632.678C106.421 609.455 117.378 582.233 136.78 565.69C162.746 543.557 200.693 536.919 219.929 540.654C222.431 541.138 224.617 541.798 226.414 542.622C252.029 554.34 286.001 522.688 359.431 500.958C385.675 493.191 427.682 496.637 460.158 513.413C463.584 515.176 466.919 517.11 470.152 519.208C474.027 521.72 477.723 524.501 481.211 527.529C482.371 528.544 483.502 529.585 484.604 530.65C505.082 550.493 514.565 579.526 499.435 618.897C499.277 619.317 499.106 619.738 498.94 620.166C498.918 620.23 498.893 620.298 498.864 620.36C497.506 623.712 496.438 627.176 495.671 630.711C494.089 638.29 494.633 644.496 496.664 649.83C502.684 665.655 521.73 673.789 536.64 687.269L536.968 687.569C539.235 689.622 541.37 691.819 543.359 694.145C543.783 694.647 544.204 695.155 544.615 695.672C544.919 696.055 545.217 696.441 545.51 696.83C547.77 699.831 549.488 703.308 551.117 706.933C556.441 718.782 557.092 734.371 554.451 745.567Z" fill="#F0FFB3"/>
<path d="M554.452 745.567L444.102 745.355L341.972 745.158L304.414 745.085C306.711 738.638 325.836 689.512 350.875 693.753C377.13 698.198 368.422 699.209 430.214 723.914C471.137 740.264 519.912 701.039 545.516 696.833C556.184 710.994 558.188 729.733 554.452 745.567Z" fill="#C6E3F4"/>
<path d="M341.972 745.157L157.751 744.805C157.751 744.805 129.063 723.234 113.424 688.033C110.993 682.588 108.974 676.967 107.383 671.218C107.277 670.834 107.173 670.445 107.067 670.058C105.869 665.529 104.967 660.926 104.369 656.279C103.537 649.835 103.319 643.326 103.715 636.84C103.802 635.462 103.913 634.073 104.059 632.678C104.77 625.798 106.14 619.003 108.15 612.388C119.905 613.64 136.231 617.905 147.636 631.081C167.38 653.888 234.485 655.557 250.261 648.882C266.038 642.207 317.564 634.446 329.769 658.074C341.153 680.111 341.92 737.52 341.972 745.157Z" fill="#0C7824"/>
<path d="M109.09 609.256L395.93 513.412L115.083 594.491C112.744 599.266 110.741 604.2 109.09 609.256Z" fill="#F8FBFF"/>
<path d="M154.649 668.672C147.635 662.667 130.042 672.844 122.725 662.837L122.686 662.785C127.978 660.738 135.923 657.202 133.738 655.132C131.524 653.03 125.435 657.989 121.587 661.429C121.421 661.245 121.254 661.069 121.085 660.896C126.256 654.259 134.294 642.68 128.993 640.867C123.95 639.142 120.389 650.925 118.602 658.805C113.193 655.117 106.972 655.767 104.367 656.265C104.966 660.912 105.867 665.515 107.065 670.044C107.167 670.431 107.271 670.82 107.382 671.204C108.973 676.953 110.992 682.574 113.422 688.019C132.509 686.656 154.649 684.864 154.649 684.864C154.649 684.864 161.666 674.677 154.649 668.672Z" fill="#8EC181"/>
<path d="M202.316 695.557C202.284 687.796 190.582 679.648 190.582 679.648C192.604 679.489 197.769 682.107 197.769 682.107C196.385 680.878 189.943 678.846 189.943 678.846C187.866 677.511 181.372 676.71 180.998 676.603C180.625 676.497 187.652 675.641 187.652 675.641L179.214 676.208C179.214 676.208 171.622 675.267 166.087 674.706C160.551 674.146 145.376 676.443 145.376 676.443C146.069 675.854 151.659 674.706 151.659 674.706C144.557 675.427 134.123 677.376 134.102 677.379C128.045 677.784 124.024 678.138 124.024 678.138L120.352 744.355C120.352 744.355 181.364 744.037 189.987 744.355C198.61 744.672 203.084 732.173 205.001 717.425C205.895 710.599 204.933 702.606 202.316 695.557Z" fill="#EDBD77"/>
<path d="M131.089 677.748C131.089 677.748 111.445 676.249 98.9812 692.118C98.5187 692.709 98.0884 693.324 97.6922 693.961C98.1177 691.544 99.3767 689.426 99.3767 689.426C96.8207 691.564 95.9302 697.387 95.9302 697.387C94.8231 700.022 94.1003 702.943 93.7159 705.987C92.1643 707.892 90.8516 709.41 90.8516 709.41L93.6179 706.87C93.0469 712.474 93.6068 718.485 95.0413 724.035C94.0417 723.855 92.6198 723.75 91.644 724.319C91.644 724.319 93.5894 723.774 95.1884 724.589C95.658 726.32 96.2241 728.024 96.884 729.692C97.4043 732.522 98.5178 736.032 99.0587 737.669C98.695 736.356 98.4071 734.494 98.1857 732.638C101.683 739.781 106.848 744.823 112.863 744.874C129.154 745.015 149.219 742.502 153.561 721.158C157.902 699.814 148.817 678.281 131.089 677.748Z" fill="#FFCF83"/>
<path d="M99.0781 737.667C99.1617 737.979 99.2636 738.285 99.3834 738.585C99.4071 738.643 99.2837 738.284 99.0781 737.667Z" fill="#FFCF83"/>
<path d="M123.315 744.317C118.798 744.317 113.362 743.547 108.72 740.696C103.703 737.615 100.426 732.646 98.9801 725.933C96.5175 714.504 97.7274 705.116 102.574 698.046C107.107 691.438 114.752 687.134 124.706 685.601C131.417 684.566 137.231 686.744 141.512 691.898C147.7 699.344 149.477 711.926 145.836 722.493C143.263 729.954 136.389 734.57 127.45 734.829C127.194 734.829 126.94 734.84 126.686 734.84C117.681 734.84 109.564 730.221 106.776 723.431C103.929 716.51 104.087 709.739 107.192 704.367C110.347 698.911 116.31 695.362 123.978 694.366C130.918 693.469 134.664 696.714 136.581 699.592C140.282 705.148 140.274 714.164 137.792 718.518C135.402 722.714 128.788 725.952 123.043 725.751C118.899 725.601 115.734 723.676 114.134 720.33C112.078 716.025 112.211 711.58 114.504 708.132C116.351 705.357 119.334 703.664 122.096 703.814C125.275 703.987 126.63 706.653 126.825 708.881C126.997 710.845 126.33 713.031 124.723 713.407C121.734 714.107 120.674 712.469 120.63 712.399C120.63 712.399 119.016 709.726 121.024 709.342C123.325 708.9 122.719 710.693 122.719 710.693C122.752 710.742 122.151 713.163 124.536 712.597C125.52 712.367 126.165 710.764 126.007 708.946C125.833 706.954 124.702 704.775 122.053 704.629C119.565 704.487 116.872 706.045 115.182 708.583C113.054 711.782 112.94 715.929 114.866 719.965C116.74 723.884 120.359 724.822 123.065 724.919C128.533 725.108 134.817 722.061 137.071 718.101C139.16 714.434 139.722 705.789 135.891 700.041C133.326 696.193 129.239 694.509 124.075 695.176C116.666 696.128 110.92 699.536 107.894 704.765C104.916 709.91 104.786 716.421 107.527 723.101C110.268 729.781 118.452 734.249 127.418 733.989C136.002 733.742 142.594 729.336 145.052 722.208C148.604 711.899 146.887 699.646 140.873 692.409C138.026 688.979 132.925 685.153 124.821 686.401C115.113 687.907 107.648 692.092 103.251 698.508C98.5372 705.381 97.37 714.54 99.7836 725.754C101.18 732.243 104.331 737.034 109.149 739.993C118.877 745.972 134.24 742.353 134.377 742.317L132.638 743.26C129.581 743.97 126.453 744.325 123.315 744.317Z" fill="#EDBD77"/>
<path d="M384.851 684.124C384.813 674.864 370.855 665.148 370.855 665.148C373.267 664.956 379.428 668.08 379.428 668.08C377.776 666.613 370.096 664.191 370.096 664.191C367.619 662.603 359.872 661.642 359.428 661.515C358.983 661.388 367.364 660.367 367.364 660.367L357.3 661.045C357.3 661.045 348.25 659.921 341.642 659.252C335.034 658.584 316.938 661.324 316.938 661.324C317.764 660.622 324.432 659.252 324.432 659.252C315.959 660.111 303.512 662.438 303.496 662.442C296.269 662.918 291.475 663.346 291.475 663.346L287.096 742.329C287.096 742.329 359.871 741.946 370.158 742.329C380.445 742.711 385.78 727.798 388.065 710.208C389.122 702.064 387.975 692.531 384.851 684.124Z" fill="#EDBD77"/>
<path d="M299.895 662.883C299.895 662.883 276.462 661.096 261.603 680.027C261.052 680.731 260.539 681.464 260.066 682.224C260.573 679.341 262.074 676.816 262.074 676.816C259.026 679.365 257.962 686.31 257.962 686.31C256.643 689.453 255.781 692.929 255.328 696.567C253.478 698.841 251.912 700.65 251.912 700.65L255.211 697.618C254.531 704.304 255.197 711.473 256.918 718.096C255.725 717.881 254.028 717.758 252.864 718.435C252.864 718.435 255.185 717.785 257.094 718.753C257.653 720.819 258.328 722.851 259.115 724.841C259.737 728.217 261.065 732.403 261.709 734.365C261.275 732.798 260.931 730.579 260.668 728.363C264.839 736.881 271.001 742.896 278.175 742.967C297.606 743.126 321.541 740.137 326.718 714.678C331.895 689.219 321.04 663.518 299.895 662.883Z" fill="#FFCF83"/>
<path d="M261.711 734.354C261.811 734.724 261.932 735.089 262.075 735.446C262.103 735.517 261.958 735.096 261.711 734.354Z" fill="#FFCF83"/>
<path d="M290.624 742.283C285.237 742.283 278.751 741.365 273.215 737.965C267.23 734.289 263.322 728.363 261.596 720.345C258.659 706.704 260.101 695.512 265.884 687.08C271.29 679.197 280.418 674.063 292.28 672.236C300.286 670.999 307.22 673.598 312.329 679.746C319.709 688.635 321.83 703.636 317.487 716.24C314.417 725.145 306.217 730.645 295.554 730.955C295.25 730.965 294.947 730.968 294.645 730.968C283.904 730.968 274.221 725.458 270.896 717.359C267.507 709.105 267.682 701.026 271.391 694.618C275.155 688.11 282.267 683.878 291.413 682.7C299.693 681.63 304.16 685.5 306.447 688.932C310.861 695.556 310.85 706.314 307.892 711.509C305.045 716.513 297.151 720.375 290.3 720.135C285.356 719.958 281.582 717.661 279.673 713.668C277.216 708.535 277.378 703.231 280.114 699.12C282.316 695.81 285.874 693.791 289.177 693.969C292.973 694.177 294.586 697.355 294.819 700.014C295.023 702.357 294.227 704.963 292.31 705.411C288.745 706.244 287.481 704.3 287.429 704.209C287.429 704.209 285.503 701.018 287.904 700.558C290.646 700.034 289.925 702.171 289.925 702.171C289.964 702.23 289.248 705.119 292.093 704.45C293.265 704.176 294.036 702.263 293.847 700.096C293.639 697.715 292.291 695.121 289.129 694.948C286.161 694.778 282.947 696.637 280.933 699.663C278.403 703.472 278.259 708.427 280.56 713.24C282.795 717.913 287.113 719.034 290.339 719.15C296.862 719.373 304.357 715.737 307.046 711.017C309.537 706.644 310.21 696.332 305.637 689.476C302.578 684.886 297.703 682.876 291.543 683.671C282.706 684.811 275.851 688.873 272.247 695.11C268.694 701.247 268.539 709.014 271.81 716.981C275.081 724.948 284.84 730.28 295.535 729.969C305.775 729.672 313.639 724.413 316.571 715.914C320.808 703.62 318.76 689.005 311.587 680.373C308.187 676.28 302.107 671.717 292.449 673.204C280.859 674.99 271.959 679.981 266.709 687.635C261.087 695.834 259.695 706.768 262.573 720.134C264.239 727.874 267.999 733.589 273.745 737.119C285.357 744.251 303.673 739.935 303.834 739.892L301.762 741.016C301.654 741.046 296.879 742.283 290.624 742.283Z" fill="#EDBD77"/>
<path d="M410.761 518.786C409.306 518.786 407.883 519.219 406.673 520.03C405.464 520.842 404.521 521.995 403.964 523.344C403.407 524.693 403.262 526.178 403.546 527.61C403.83 529.042 404.53 530.358 405.559 531.39C406.588 532.423 407.899 533.126 409.326 533.41C410.753 533.695 412.233 533.549 413.577 532.99C414.921 532.431 416.07 531.484 416.878 530.27C417.686 529.055 418.117 527.628 418.117 526.168C418.117 525.198 417.927 524.238 417.557 523.342C417.187 522.447 416.645 521.633 415.962 520.948C415.279 520.262 414.468 519.718 413.576 519.348C412.683 518.977 411.726 518.786 410.761 518.786Z" fill="#F8FBFF"/>
<path d="M500.028 744.701H484.686C483.865 744.002 485.255 742.412 486.709 742.305C487.342 742.258 488.132 742.39 489.051 742.583C489.262 739.769 490.467 727.117 495.011 727.625C500.121 728.195 495.011 733.197 493.567 736.159C492.498 738.353 491.368 741.499 490.853 742.985C491.267 743.075 491.697 743.163 492.136 743.245C492.812 741.158 495.332 734.138 498.536 734.548C502.299 735.024 500.787 737.84 498.121 739.512C496.164 740.74 493.761 742.486 492.62 743.321C493.612 743.495 494.618 743.576 495.625 743.563C498.247 743.507 499.53 744.283 500.028 744.701Z" fill="#0C7824"/>
<path d="M82.4062 744.967C82.4062 744.967 108.423 723.29 131.668 730.797C186.466 748.488 191.966 705.471 228.476 728.86C264.987 752.249 277.762 742.083 311.008 734.549C344.255 727.015 384.729 735.624 418.116 744.989L82.4062 744.967Z" fill="#0C7824"/>
<path d="M387.316 739.795C387.316 739.795 393.091 725.729 397.689 726.904C402.287 728.078 387.316 739.795 387.316 739.795Z" fill="#0C7824"/>
<path d="M388.414 740.252C388.414 740.252 395.057 734.519 398.291 736.101C401.526 737.684 388.414 740.252 388.414 740.252Z" fill="#0C7824"/>
<path d="M215.867 723.906C215.867 723.906 215.983 712.845 209.324 712.343C202.665 711.842 215.867 723.906 215.867 723.906Z" fill="#0C7824"/>
<path d="M103.123 744.989C103.123 744.989 120.534 734.126 132.858 736.463C145.182 738.8 163.213 736.333 163.828 744.989H103.123Z" fill="#82B378"/>
<path d="M137.215 740.794C137.215 740.794 148.77 730.414 154.434 731.37C160.098 732.325 137.215 740.794 137.215 740.794Z" fill="#82B378"/>
<path d="M137.817 739.673C137.691 738.905 137.768 725.942 141.351 726.656C144.933 727.371 137.817 739.673 137.817 739.673Z" fill="#82B378"/>
<g opacity="0.6">
<path d="M315.82 569.328C313.734 589.109 304.432 657.168 303.782 661.899C303.798 664.053 303.085 673.547 290.299 682.6C286.515 685.281 280.156 689.092 273.962 691.489L273.013 685.597L272.749 683.968C276.839 682.381 282.18 680.6 286.509 677.579C289.788 675.291 292.755 672.567 294.844 669.375C297.52 665.283 297.533 662.294 297.519 661.949L297.476 661.578L297.541 661.291C297.639 660.57 307.448 588.956 309.59 568.661C310.128 563.582 309.104 559.532 306.55 556.651C302.101 551.63 294.174 551.329 293.865 551.319H251.92V545.028H293.929C294.371 545.028 304.826 545.236 311.236 552.472C315.002 556.732 316.552 562.401 315.82 569.328Z" fill="#92C4FF"/>
</g>
<g opacity="0.6">
<path d="M312.48 571.926C310.396 591.706 301.092 659.767 300.444 664.496C300.456 666.445 299.874 674.401 290.299 682.602C286.155 686.15 282.258 688.972 274.067 692.147L272.743 683.973C273.934 683.513 273.769 683.673 275.061 683.092C279.389 681.153 282.954 679.988 286.503 677.584C289.782 675.297 292.749 672.573 294.838 669.381C297.515 665.288 297.527 662.299 297.513 661.955L297.47 661.583L297.535 661.296C297.633 660.575 307.443 588.962 309.584 568.667C310.122 563.587 309.099 559.538 306.544 556.657C302.095 551.636 294.168 551.334 293.859 551.325H251.914V547.626H290.584C291.025 547.626 301.481 547.834 307.892 555.069C311.667 559.328 313.212 565 312.48 571.926Z" fill="#92C4FF"/>
</g>
<path opacity="0.6" d="M276.376 722.746L276.327 722.816L264.166 740.787C263.292 742.078 262.117 743.135 260.744 743.867C259.371 744.6 257.841 744.985 256.286 744.99L152.649 745.248C150.829 745.247 149.048 744.726 147.513 743.746C145.979 742.766 144.755 741.366 143.984 739.712L133.629 717.521C132.784 715.71 132.524 713.68 132.884 711.714L136.513 691.964L150.564 615.478L160.633 560.655C160.738 560.081 160.791 559.499 160.791 558.916V541.045C160.791 535.748 163.867 530.261 169.145 530.261H242.417C243.673 530.26 244.916 530.508 246.077 530.99C247.237 531.472 248.292 532.179 249.18 533.071C250.068 533.963 250.772 535.021 251.252 536.186C251.732 537.351 251.979 538.599 251.978 539.86V555.146C251.979 555.663 252.02 556.178 252.101 556.688L272.74 683.971L273.026 685.74L274.388 694.135L277.891 715.743L277.904 715.821C278.294 718.24 277.748 720.718 276.376 722.746Z" fill="#92C4FF"/>
<path opacity="0.6" d="M246.03 522.171C246.03 522.264 246.03 522.36 246.019 522.453C245.93 524.676 245.41 527.293 244.151 530.262H169.151L168.202 529.777L156.254 523.669C156.254 523.669 167.958 513.421 178.081 513.421H243.561C243.561 513.421 245.813 516.077 246.024 520.983C246.031 521.142 246.036 521.309 246.039 521.475C246.043 521.696 246.043 521.931 246.03 522.171Z" fill="#92C4FF"/>
<path opacity="0.3" d="M246.029 522.17C246.029 522.263 246.029 522.359 246.018 522.452C245.92 524.675 245.357 527.292 243.995 530.261H212.291C217.242 528.086 221.757 525.903 224.508 523.141C227.589 520.051 229.162 517.585 229.204 513.412H243.353C243.353 513.412 245.794 516.068 246.02 520.974C246.028 521.133 246.032 521.3 246.035 521.467C246.042 521.695 246.042 521.93 246.029 522.17Z" fill="#92C4FF"/>
<path d="M266.112 720.945L259.083 731.333C257.819 733.202 256.12 734.732 254.133 735.792C252.146 736.852 249.931 737.409 247.681 737.415L165.891 737.635C162.113 737.635 158.413 736.554 155.225 734.519C152.037 732.484 149.493 729.58 147.89 726.146L142.919 715.501C141.431 712.312 140.98 708.734 141.628 705.273L144.245 691.323L165.326 578.961C165.348 578.846 165.406 578.741 165.491 578.661C165.576 578.581 165.685 578.53 165.801 578.517C172.602 577.702 195.365 573.024 202.136 577.247C215.654 585.681 226.226 575.632 248.673 577.631C248.796 577.642 248.912 577.693 249.002 577.778C249.092 577.863 249.151 577.975 249.17 578.098L267.216 695.425L269.098 707.662C269.812 712.31 268.745 717.056 266.112 720.945Z" fill="#FFF3E9"/>
<path opacity="0.3" d="M276.378 722.746L276.329 722.816L264.168 740.787C263.168 742.267 261.775 743.435 260.147 744.16H227.916L231.984 737.457L242.973 719.349C246.125 714.16 247.273 707.992 246.202 702.01L224.299 579.464L219.454 552.345C219.366 551.849 219.332 551.346 219.351 550.843C219.473 548.022 219.853 538.079 219.318 535.461C218.695 532.402 212.291 530.261 212.291 530.261H242.423C243.679 530.261 244.922 530.509 246.082 530.992C247.242 531.474 248.296 532.181 249.183 533.073C250.071 533.964 250.774 535.022 251.254 536.187C251.734 537.351 251.98 538.6 251.979 539.86V555.146C251.98 555.663 252.021 556.178 252.103 556.688L272.742 683.971L273.028 685.74L274.39 694.135L277.893 715.743L277.906 715.821C278.296 718.24 277.749 720.718 276.378 722.746Z" fill="#92C4FF"/>
<path opacity="0.5" d="M266.112 720.945L259.083 731.333C257.819 733.201 256.12 734.732 254.133 735.791C252.146 736.851 249.931 737.408 247.681 737.414L165.891 737.635C162.113 737.634 158.413 736.553 155.225 734.518C152.037 732.483 149.493 729.579 147.89 726.145L142.919 715.5C141.431 712.311 140.98 708.733 141.628 705.272C141.628 705.272 156.254 714.565 200.978 715.66C238.849 716.587 269.094 707.654 269.094 707.654C269.811 712.303 268.745 717.052 266.112 720.945Z" fill="#EFDCCE"/>
<path opacity="0.4" d="M173.993 536.925C172.823 536.925 171.864 537.842 171.864 538.963V562.042C171.865 562.256 171.9 562.468 171.97 562.669L152.002 701.836C152.002 701.836 154.623 719.553 160.238 729.012C160.669 729.719 161.276 730.302 161.998 730.704C162.721 731.106 163.535 731.314 164.361 731.307H184.516C186.654 731.307 188.219 729.377 187.69 727.391C186.02 721.12 181.085 711.487 180.34 700.961C180.253 699.745 198.703 561.147 198.703 561.147C198.703 561.147 198.646 561.053 198.537 560.898V538.963C198.537 537.842 197.588 536.925 196.41 536.925H173.993Z" fill="white"/>
<path opacity="0.6" d="M211.74 587.512L217.586 745.124H283.868L288.784 587.512H211.74Z" fill="#92C4FF"/>
<path opacity="0.5" d="M284.753 587.799L283.989 612.286L283.357 632.801L280.597 721.31C280.464 725.559 277.525 728.929 273.954 728.929H227.77C223.991 728.929 220.881 725.394 220.715 720.906L217.123 624.076L216.848 616.664L215.77 587.799H284.753Z" fill="white"/>
<path d="M283.35 632.8L280.59 721.309C280.457 725.558 277.519 728.928 273.947 728.928H227.763C223.985 728.928 220.875 725.393 220.709 720.905L217.117 624.074C222.746 622.695 233.848 621.682 247.094 629.4C258.322 635.948 273.046 634.846 283.35 632.8Z" fill="#FFF3E9"/>
<path opacity="0.4" d="M232.673 592.144H224.088V743.443H232.673V592.144Z" fill="white"/>
<path opacity="0.2" d="M276.525 587.592H261.18V743.444H276.525V587.592Z" fill="#92C4FF"/>
<path opacity="0.6" d="M281.313 589.177C281.269 589.04 281.183 588.922 281.067 588.838C280.95 588.755 280.81 588.712 280.668 588.715H235.785C220 588.715 274.67 589.952 274.67 589.952C275.97 589.952 277.218 590.47 278.137 591.393C279.057 592.316 279.573 593.567 279.573 594.872C279.573 594.872 281.329 611.97 281.329 611.456V589.596C281.328 589.551 281.323 589.506 281.315 589.461C281.338 589.368 281.337 589.27 281.313 589.177Z" fill="#92C4FF"/>
<path opacity="0.6" d="M171.195 518.185C171.158 518.137 171.109 518.098 171.052 518.074C170.007 517.703 162.801 522.462 162.556 522.837C162.311 523.211 171.052 529.264 171.052 529.264H190.211C185.45 529.319 172.669 519.349 171.195 518.185Z" fill="#92C4FF"/>
<path d="M274.302 744.694C274.302 744.694 257.062 744.676 254.645 744.783C252.228 744.889 237.799 739.776 237.799 739.776C238.099 739.61 248.625 733.763 255.059 731.557C261.544 729.334 274.11 744.472 274.294 744.694H274.302Z" fill="#8EC181"/>
<path d="M274.302 744.694C274.302 744.694 257.062 744.677 254.645 744.783C252.228 744.89 237.799 739.777 237.799 739.777C238.166 739.707 252.076 737.054 257.271 738.061C262.49 739.07 274.112 744.61 274.294 744.694H274.302Z" fill="#72A067"/>
<path d="M272.346 744.594C272.346 744.594 277.881 744.262 279.34 742.837C279.34 742.837 280.131 743.065 280.241 743.418C280.241 743.418 276.488 745.11 272.346 744.594Z" fill="#82B378"/>
<path d="M499.436 618.896C499.278 619.317 499.107 619.737 498.941 620.166C498.919 620.229 498.894 620.298 498.865 620.359C497.507 623.712 496.439 627.175 495.672 630.711C494.09 638.289 494.634 644.496 496.665 649.829C482.834 648.083 482.04 637.765 482.04 637.765C482.04 637.765 484.254 626.495 453.589 622.844C444.199 621.733 437.407 619.237 432.681 615.97C433.78 612.161 436.963 608.967 436.963 608.967C433.281 609.741 430.593 611.703 429.141 613.007C422.024 605.752 422.437 596.112 426.249 588.72C429.475 582.464 436.896 579.39 442.905 574.56C444.879 575.405 447.808 577.068 449.526 579.944C449.526 579.944 448.591 574.865 445.798 571.942C449.976 567.617 452.727 561.726 451.416 551.941C448.542 530.529 465.79 521.205 470.154 519.206C474.028 521.718 477.724 524.499 481.212 527.527C482.372 528.542 483.503 529.582 484.605 530.648C505.083 550.486 514.566 579.525 499.436 618.896Z" fill="#0C7824"/>
<path d="M575.549 744.7H67.4508C67.2018 744.7 67 744.903 67 745.153V745.546C67 745.796 67.2018 745.999 67.4508 745.999H575.549C575.798 745.999 576 745.796 576 745.546V745.153C576 744.903 575.798 744.7 575.549 744.7Z" fill="#2E3552"/>
<path d="M385.798 641.385C385.69 639.763 382.16 635.761 382.16 635.761C379.788 630.216 377.573 617.204 377.573 617.204C377.167 602.005 375.451 593.206 374.064 588.473C373.176 585.439 372.42 584.068 372.227 583.744L372.18 583.666C372.161 583.682 372.143 583.699 372.126 583.717C371.631 584.178 371.162 584.668 370.723 585.184C361.202 596.295 369.335 614.09 369.585 618.157C369.844 622.414 378.87 636.38 378.87 636.38C379.187 637.412 379.326 638.114 379.063 638.983C378.747 640.007 380.329 641.122 380.528 642.077C380.727 643.033 381.225 642.985 381.42 642.7C381.615 642.414 380.987 640.626 380.925 640.171C380.863 639.715 381.888 641.242 382.124 642.247C382.36 643.252 381.379 645.754 382.949 645.406C384.52 645.058 385.906 643.008 385.798 641.385Z" fill="#F4A671"/>
<path d="M358.296 563.479C358.296 563.479 358.219 565.167 359.228 565.499C360.237 565.831 358.187 569.468 358.349 571.936C358.51 574.405 359.595 575.386 359.595 575.386C359.595 575.386 359.073 574.031 359.365 573.195C359.365 573.195 359.318 574.941 360.585 575.814C361.852 576.687 361.512 577.452 361.512 577.452C361.512 577.452 364.376 576.592 364.457 574.436C364.457 574.436 364.58 575.411 364.481 575.814C364.481 575.814 366.953 573.951 367.071 571.803C367.19 569.655 365.124 567.844 364.185 567.812C363.245 567.78 361.145 565.926 361.202 565.225C361.259 564.523 358.296 563.479 358.296 563.479Z" fill="#2C3A64"/>
<path d="M366.211 551.413C364.545 548.874 357.929 550.302 351.434 554.588C344.938 558.874 341.025 564.421 342.69 566.96C344.356 569.5 350.973 568.08 357.469 563.786C363.965 559.492 367.878 553.952 366.211 551.413Z" fill="#E2AF64"/>
<path d="M380.497 738.798L376.993 740.108C376.993 740.108 361.781 718.932 359.911 700.301C359.576 696.967 359.688 693.751 360.411 690.776C360.411 690.776 360.263 689.924 360.003 688.418C359.883 687.714 359.734 686.867 359.565 685.897C359.07 683.054 358.39 679.161 357.612 674.731C355.823 664.534 353.5 651.5 351.701 641.916L352.65 641.612L362.861 638.307L364.971 631.579L372.574 629.571C372.574 629.571 374.271 632.905 375.79 648.658C376.07 650.722 376.324 653.003 376.516 655.474C377.216 664.673 376.974 673.919 375.793 683.068C375.445 685.805 375 688.628 374.458 691.537C374.058 693.665 373.998 696.567 374.165 699.899C374.926 715.13 380.497 738.798 380.497 738.798Z" fill="#3C3C3C"/>
<path d="M376.511 655.474L360.001 688.418C359.881 687.714 359.732 686.867 359.563 685.897C359.068 683.054 358.388 679.162 357.61 674.731C355.821 664.534 353.498 651.5 351.699 641.917L352.648 641.612L362.859 638.307L364.969 631.579L374.053 628.868C374.053 628.868 374.271 632.905 375.792 648.658C376.065 650.725 376.319 653.003 376.511 655.474Z" fill="#233862"/>
<path d="M372.472 630.399C372.975 629.794 368.866 630.508 368.866 630.508C362.462 632.216 345.353 625.746 345.353 625.746C345.353 625.746 339.15 631.218 339.964 644.336C340.361 650.74 341.087 677.948 341.845 685.999C342.12 688.918 342.361 690.994 342.459 691.823C342.459 691.826 342.459 691.829 342.459 691.832C342.476 692.084 342.41 692.334 342.272 692.545C341.171 694.43 340.234 696.407 339.472 698.453C332.029 718.363 340.619 742.88 340.619 742.88L342.849 741.978C342.849 741.978 347.737 714.692 351.706 702.638C352.38 700.593 353.027 698.987 353.619 698.026C355.346 695.229 356.95 690.659 358.405 685.223C361.154 674.944 363.366 661.57 364.839 651.252C365.048 651.255 367.166 636.78 372.472 630.399Z" fill="#3C3C3C"/>
<path d="M362.555 551.7L350.879 569.479C350.879 569.479 349.544 566.855 348.062 567.796C345.75 569.263 340.787 564.242 341.816 557.161C341.885 556.697 341.965 556.256 342.057 555.838C344.385 552.47 346.973 548.719 348.83 546.082C354.19 542.826 362.555 551.7 362.555 551.7Z" fill="#2C3A64"/>
<path d="M367.686 587.615C366.052 589.119 363.931 590.463 361.18 591.508C350.869 595.428 345.568 586.957 343.195 580.967C344.223 580.197 345.401 579.651 346.651 579.364C347.407 579.167 348.209 578.997 348.875 578.872C349.946 577.789 351.216 573.792 350.819 567.894L351.338 567.96L360.037 569.119C360.037 569.119 360.015 571.848 360.17 574.403C360.291 576.404 360.525 578.299 360.96 578.71C361.634 578.764 362.039 578.802 362.039 578.802C364.198 581.552 366.089 584.503 367.686 587.615Z" fill="#FFB27D"/>
<path d="M360.04 569.121C360.04 569.121 360.018 571.848 360.173 574.405C355.356 574.577 352.536 570.337 351.34 567.962L360.04 569.121Z" fill="#ED985F"/>
<path d="M361.801 571.44C361.801 571.44 350.435 572.356 349.976 565.249C349.518 558.142 347.741 553.464 354.978 552.58C362.214 551.696 363.802 554.317 364.531 556.653C365.26 558.99 364.744 571.019 361.801 571.44Z" fill="#FFB27D"/>
<path d="M363.939 552.718C362.041 550.691 360.746 551.245 360.042 551.936C353.607 548.902 349.92 554.231 349.92 554.231C349.482 559.385 346.002 562.538 346.002 562.538C346.002 562.538 348.156 563.69 352.858 562.151C354.296 561.674 355.533 560.555 356.561 559.222C355.431 561.369 354.014 563.351 352.349 565.114C357.885 562.098 359.678 553.982 359.854 553.123C360.588 553.706 362.043 554.979 362.543 556.284C363.225 558.06 363.715 561.771 364.79 561.576C364.794 561.576 366.782 555.753 363.939 552.718Z" fill="#2C3A64"/>
<path d="M353.582 744.7H335.94C335.94 744.7 335.518 742.001 336.44 739.955C337.323 737.99 338.705 737.098 338.374 734.717C339.494 735.874 341.323 737.171 343.872 736.828C344.189 737.336 345.889 740.057 346.933 740.809C348.086 741.646 353.226 741.349 353.582 744.7Z" fill="#233862"/>
<path d="M375.213 589.473C373.799 582.371 369.412 580.339 369.412 580.339C369.412 580.339 366.928 579.386 364.611 579.056C363.979 578.967 363.284 578.897 362.514 578.835L362.04 578.804C362.198 579.042 366.31 585.38 366.074 587.084C365.842 588.817 350.89 588.225 349.807 587.349C348.939 586.642 347.435 581.936 346.867 580.096C346.724 579.637 346.641 579.356 346.641 579.356C346.641 579.356 341.421 580.27 338.965 582.312C340.193 583.712 341.246 585.258 342.098 586.915C342.217 587.158 342.331 587.401 342.435 587.647C342.658 588.161 342.842 588.692 342.984 589.234C343.163 589.941 343 590.671 342.62 591.457C342.278 592.173 341.747 592.943 341.136 593.778C340.735 594.32 340.301 594.889 339.86 595.509C340.176 596.546 340.575 597.786 341.024 599.189C341.948 602.076 343.046 605.643 343.83 609.483C344.124 610.924 344.09 612.412 343.732 613.837C343.591 614.406 343.401 614.961 343.164 615.496C342.791 616.334 342.699 617.49 342.28 618.574C340.572 623.019 338.599 628.81 340.577 631.835C341.894 635.704 372.423 626.31 370.367 622.254C370.367 622.254 371.585 600.973 372.423 594.382C372.45 594.14 372.472 593.906 372.485 593.671C372.505 593.307 372.505 592.943 372.485 592.579C375.142 591.385 375.213 589.473 375.213 589.473Z" fill="#F99746"/>
<path d="M391.458 744.7H373.818C373.818 744.7 373.158 741.876 374.316 739.956C375.341 738.255 374.949 737.286 374.19 735.879C375.126 736.286 376.141 736.478 377.16 736.441C378.039 736.39 378.969 735.99 379.784 735.516C380.543 736.384 383.793 740.083 384.81 740.814C385.962 741.646 391.102 741.349 391.458 744.7Z" fill="#233862"/>
<path d="M341.574 560.655C341.574 560.655 336.288 550.095 343.674 545.922C351.061 541.749 356.467 543.382 360.53 548.492L341.574 560.655Z" fill="#EDBD77"/>
<path d="M371.331 547.33C369.81 544.884 364.492 545.279 358.071 547.917C355.34 549.055 352.71 550.421 350.207 552C346.871 554.089 343.964 556.375 341.683 558.61C337.435 562.782 335.357 566.777 336.736 568.992C338.265 571.449 343.632 571.038 350.101 568.357C349.576 567.782 348.836 567.296 348.062 567.79C347.289 568.284 346.155 568.03 345.084 567.177C344.293 567.047 343.708 566.728 343.387 566.212C343.144 565.794 343.058 565.304 343.143 564.828C343.474 562.359 346.958 558.526 351.964 555.392C355.809 552.986 359.632 551.568 362.264 551.4C363.795 551.3 364.924 551.622 365.418 552.421C365.846 553.108 365.751 554.065 365.226 555.173C365.481 556.309 365.539 557.48 365.399 558.635C370.306 554.146 372.812 549.711 371.331 547.33Z" fill="#FFCF83"/>
<path d="M354.148 616.149C349.751 617.563 345.47 618.171 342.074 618.417C342.491 617.333 342.801 616.353 343.181 615.512C343.418 614.977 343.608 614.422 343.749 613.853C344.107 612.428 344.14 610.939 343.847 609.499C343.056 605.659 340.979 599.108 340.051 596.221C342.518 590.698 345.066 593.711 345.066 593.711C345.066 593.711 352.522 597.067 355.696 603.253C358.871 609.439 357.942 614.93 354.148 616.149Z" fill="#ED7D2B"/>
<path d="M344.598 579.831C344.598 579.831 351.732 584.339 353.548 593.94L355.696 593.256C355.696 593.256 354.864 586.403 346.652 579.364C346.3 579.408 345.951 579.472 345.607 579.558C345.339 579.626 344.598 579.831 344.598 579.831Z" fill="#3C3C3C"/>
<path d="M369.709 594.182L367.46 594.331C367.911 586.007 363.748 580.324 362.518 578.835C363.289 578.897 363.989 578.971 364.615 579.056C370.503 587.605 369.709 594.182 369.709 594.182Z" fill="#3C3C3C"/>
<path d="M353.762 599.265C353.623 598.671 352.249 592.915 352.249 592.915C352.249 592.915 351.932 591.113 355.086 590.934C358.24 590.755 369.432 590.164 369.432 590.164C369.432 590.164 370.958 591.088 370.98 592.983C371.002 594.879 372.525 605.725 372.525 605.725L374.093 629.577L339.964 644.34C339.964 644.34 337.623 632.286 340.244 623.883C341.772 618.983 343.743 613.865 343.743 613.865C343.743 613.865 355.887 608.321 353.762 599.265Z" fill="#3C3C3C"/>
<path d="M353.458 593.101C353.4 592.922 353.397 592.729 353.448 592.547C353.5 592.366 353.604 592.203 353.748 592.081C353.891 591.959 354.068 591.883 354.255 591.861C354.441 591.84 354.631 591.875 354.798 591.962C354.965 592.049 355.102 592.184 355.193 592.349C355.283 592.515 355.323 592.704 355.306 592.892C355.29 593.08 355.218 593.259 355.1 593.406C354.982 593.553 354.823 593.661 354.643 593.717C354.404 593.792 354.146 593.769 353.925 593.654C353.703 593.538 353.535 593.34 353.458 593.101Z" fill="#ED7D2B"/>
<path d="M353.62 593.051C353.562 592.871 353.559 592.678 353.61 592.496C353.662 592.315 353.766 592.153 353.91 592.031C354.053 591.908 354.23 591.832 354.417 591.811C354.604 591.79 354.793 591.825 354.96 591.911C355.127 591.998 355.264 592.133 355.355 592.299C355.446 592.464 355.485 592.653 355.469 592.841C355.452 593.029 355.38 593.208 355.262 593.355C355.144 593.502 354.985 593.61 354.805 593.667C354.567 593.741 354.308 593.718 354.087 593.603C353.865 593.488 353.697 593.289 353.62 593.051Z" fill="#F99746"/>
<path d="M353.936 592.763C353.936 592.736 353.944 592.709 353.959 592.686C353.974 592.663 353.996 592.646 354.021 592.635C354.046 592.625 354.074 592.622 354.101 592.628C354.127 592.633 354.152 592.647 354.171 592.666C354.19 592.685 354.203 592.71 354.208 592.737C354.213 592.764 354.21 592.792 354.2 592.817C354.189 592.842 354.171 592.864 354.148 592.879C354.126 592.894 354.099 592.902 354.072 592.901C354.035 592.901 354.001 592.886 353.975 592.86C353.95 592.834 353.936 592.799 353.936 592.763Z" fill="#3C3C3C"/>
<path d="M354.83 592.765C354.83 592.738 354.838 592.711 354.853 592.688C354.869 592.665 354.89 592.648 354.915 592.637C354.941 592.627 354.968 592.624 354.995 592.63C355.022 592.635 355.046 592.648 355.066 592.668C355.085 592.687 355.098 592.712 355.103 592.739C355.108 592.766 355.105 592.794 355.094 592.819C355.084 592.844 355.066 592.866 355.043 592.881C355.02 592.896 354.993 592.903 354.966 592.903C354.948 592.903 354.93 592.9 354.914 592.893C354.897 592.886 354.882 592.875 354.869 592.863C354.857 592.85 354.847 592.835 354.84 592.818C354.833 592.801 354.83 592.783 354.83 592.765Z" fill="#3C3C3C"/>
<path d="M367.335 591.9C367.277 591.72 367.274 591.527 367.325 591.345C367.377 591.164 367.481 591.001 367.624 590.879C367.768 590.757 367.945 590.68 368.132 590.659C368.319 590.638 368.508 590.673 368.675 590.76C368.842 590.847 368.98 590.982 369.07 591.148C369.161 591.314 369.2 591.502 369.183 591.691C369.166 591.879 369.094 592.058 368.976 592.205C368.858 592.352 368.698 592.46 368.518 592.516C368.401 592.553 368.276 592.567 368.153 592.557C368.03 592.546 367.909 592.511 367.8 592.454C367.69 592.397 367.592 592.318 367.512 592.223C367.433 592.128 367.373 592.018 367.335 591.9Z" fill="#ED7D2B"/>
<path d="M367.498 591.849C367.44 591.669 367.436 591.476 367.487 591.295C367.538 591.113 367.642 590.951 367.786 590.828C367.929 590.706 368.105 590.629 368.292 590.608C368.479 590.586 368.669 590.621 368.836 590.708C369.003 590.795 369.141 590.929 369.231 591.095C369.322 591.26 369.362 591.449 369.346 591.637C369.329 591.825 369.257 592.004 369.139 592.151C369.021 592.299 368.862 592.407 368.682 592.463C368.444 592.538 368.186 592.515 367.965 592.4C367.743 592.285 367.575 592.087 367.498 591.849Z" fill="#F99746"/>
<path d="M367.811 591.561C367.809 591.542 367.811 591.522 367.817 591.504C367.823 591.485 367.833 591.468 367.846 591.454C367.859 591.44 367.874 591.428 367.892 591.42C367.91 591.412 367.929 591.408 367.948 591.408C367.967 591.408 367.987 591.412 368.004 591.42C368.022 591.428 368.038 591.44 368.051 591.454C368.063 591.468 368.073 591.485 368.079 591.504C368.085 591.522 368.087 591.542 368.085 591.561C368.081 591.595 368.065 591.626 368.04 591.649C368.015 591.672 367.982 591.684 367.948 591.684C367.914 591.684 367.881 591.672 367.856 591.649C367.831 591.626 367.815 591.595 367.811 591.561Z" fill="#3C3C3C"/>
<path d="M368.705 591.563C368.705 591.535 368.713 591.508 368.728 591.485C368.742 591.462 368.764 591.445 368.789 591.434C368.814 591.423 368.842 591.42 368.869 591.425C368.895 591.43 368.92 591.443 368.939 591.463C368.959 591.482 368.972 591.507 368.978 591.533C368.983 591.56 368.98 591.588 368.97 591.613C368.96 591.639 368.942 591.66 368.919 591.676C368.897 591.691 368.87 591.699 368.843 591.699C368.806 591.699 368.772 591.685 368.746 591.659C368.72 591.634 368.706 591.599 368.705 591.563Z" fill="#3C3C3C"/>
<path d="M343.144 564.835C343.144 564.835 343.066 566.524 344.076 566.854C345.085 567.184 343.036 570.831 343.196 573.293C343.356 575.755 344.442 576.742 344.442 576.742C344.442 576.742 343.921 575.388 344.213 574.55C344.213 574.55 344.166 576.296 345.433 577.171C346.699 578.045 346.359 578.809 346.359 578.809C346.359 578.809 349.224 577.948 349.304 575.793C349.304 575.793 349.426 576.767 349.328 577.172C349.328 577.172 351.8 575.309 351.919 573.161C352.038 571.013 349.972 569.202 349.032 569.169C348.093 569.135 345.993 567.283 346.049 566.583C346.106 565.883 343.144 564.835 343.144 564.835Z" fill="#2C3A64"/>
<path d="M358.295 567.465C358.295 567.465 359.989 568.495 361.194 568.376C362.399 568.257 363.038 566.812 363.038 566.812C361.428 566.642 359.8 566.866 358.295 567.465Z" fill="#FFF2E9"/>
<path d="M352.444 622.126C351.388 621.474 350.214 621.968 349.177 622.533C349.555 622.114 349.509 621.766 349.449 621.558C349.389 621.35 348.71 622.063 347.979 622.39C347.249 622.717 347.056 623.545 347.056 623.545C346.792 623.555 345.718 622.958 344.762 622.391C340.618 619.693 333.375 608.094 333.167 607.087C332.96 606.081 342.243 597.049 345.064 593.71C347.886 590.372 343.361 580.597 338.975 582.318C338.975 582.318 326.311 597.326 322.121 605.784C322.121 605.784 326.488 615.321 340.263 623.855L340.244 623.872C340.244 623.872 344.149 626.346 345.957 626.947C347.836 627.573 350.499 626.242 351.581 626.085C352.663 625.928 354.913 626.858 355.578 626.069C356.242 625.28 354.363 623.309 352.444 622.126Z" fill="#FFB27D"/>
<path d="M338.975 582.318L333.281 587.895C333.281 587.895 334.58 596.13 343.19 597.206C343.19 597.206 350.257 591.528 346.037 585.618C341.817 579.708 338.975 582.318 338.975 582.318Z" fill="#F99746"/>
<path d="M516.639 673.995C516.639 673.995 529.436 723.557 528.288 727.473C527.139 731.389 520.713 744.699 520.713 744.699H526.897C527.656 744.277 528.282 743.651 528.706 742.891C529.129 742.132 529.333 741.268 529.295 740.399C529.192 737.327 537.864 725.347 537.864 725.347C537.864 725.347 534.464 706.321 537.864 698.825C552.515 666.552 527.978 666.852 516.639 673.995Z" fill="#CCA283"/>
<path d="M450.903 691.146C450.903 691.146 454.576 717.77 454.78 719.402C454.984 721.034 456.719 723.09 456.616 725.752C456.513 728.414 455.596 737.425 452.739 739.678C449.883 741.93 449.576 744.694 449.576 744.694H457.326C457.326 744.694 458.652 742.032 458.448 740.189C458.244 738.346 460.591 736.4 460.694 732.612C460.796 728.825 460.694 721.758 461.714 719.3C462.734 716.843 462.427 699.947 465.794 696.158C469.162 692.369 450.903 691.146 450.903 691.146Z" fill="#CCA283"/>
<path d="M535.265 682.249C535.349 683.476 535.39 684.619 535.39 685.762C535.18 714.584 506.763 705.951 505.744 705.189C504.648 704.427 502.666 704.511 502.666 704.511C488.455 710.183 468.55 704.976 464.417 703.284C460.284 701.592 449.277 705.781 444.172 705.4C442.105 705.23 440.376 703.071 439.068 700.363C437.213 696.512 436.159 691.559 435.99 689.824C435.906 688.851 434.598 685.126 432.827 680.556C432.11 678.778 431.31 676.831 430.465 674.841C430.298 674.503 430.171 674.122 430.002 673.784C430.424 673.317 430.804 672.811 431.183 672.303C433.418 669.339 434.979 665.869 436.707 662.399C438.478 658.757 440.376 655.033 443.201 651.69C447.376 650.378 452.352 652.749 454.419 652.622C456.824 652.536 459.185 652.113 461.336 651.775C462.222 651.606 463.022 651.479 463.781 651.352C467.998 650.717 493.554 654.019 511.604 654.527C515.315 654.654 518.688 654.613 521.513 654.443C521.725 654.443 521.935 654.4 522.146 654.4C529.695 653.976 533.701 654.443 535.81 655.119C538.13 655.84 538.171 656.729 538.171 656.729C545.386 663.791 535.265 682.249 535.265 682.249Z" fill="#EFCDAF"/>
<path d="M441.61 691.146C441.61 691.146 445.283 717.77 445.487 719.402C445.691 721.034 447.426 723.09 447.323 725.752C447.22 728.414 446.303 737.425 443.447 739.678C440.59 741.93 440.283 744.694 440.283 744.694H448.033C448.033 744.694 449.36 742.032 449.156 740.189C448.952 738.346 451.298 736.4 451.401 732.612C451.503 728.825 451.401 721.758 452.421 719.3C453.441 716.843 453.136 699.947 456.501 696.158C459.867 692.369 441.61 691.146 441.61 691.146Z" fill="#EFCDAF"/>
<path d="M508.656 685.083C508.656 685.083 518.986 723.558 517.83 727.474C516.674 731.39 510.255 744.7 510.255 744.7H516.44C517.198 744.278 517.825 743.652 518.248 742.893C518.672 742.133 518.876 741.27 518.837 740.4C518.736 737.328 527.408 725.348 527.408 725.348C527.408 725.348 528.109 703.63 533.21 697.178C538.311 690.727 519.995 677.944 508.656 685.083Z" fill="#EFCDAF"/>
<path d="M403.426 694.93C403.01 695.493 402.635 695.895 402.635 695.895C402.575 695.869 401.783 696.025 400.797 695.985C400.006 695.955 399.081 695.796 398.324 695.311C397.781 694.965 397.359 694.459 397.115 693.863C397.115 693.863 397.465 692.955 399.303 692.715C400.657 692.541 401.991 691.604 403.119 691.477C403.52 691.422 403.926 691.519 404.26 691.749C405.122 692.35 404.192 693.906 403.426 694.93Z" fill="#EFCDAF"/>
<path d="M401.472 698.52C401.42 698.496 400.775 698.618 399.933 698.615C398.579 698.615 396.704 698.284 395.949 696.49C395.949 696.49 396.299 695.58 398.137 695.342C398.2 695.342 398.268 695.325 398.33 695.31C399.513 695.099 400.677 694.358 401.694 694.145C402.203 694.042 402.676 694.074 403.097 694.371C403.189 694.434 403.267 694.516 403.324 694.613C403.381 694.71 403.415 694.818 403.426 694.929C403.595 696.201 401.472 698.52 401.472 698.52Z" fill="#EFCDAF"/>
<path d="M443.542 659.644C443.036 672.851 440.589 698.117 439.071 700.36C435.36 700.528 432.366 700.868 429.921 701.376C422.329 702.941 420.22 705.821 419.504 707.175C418.155 709.884 411.828 716.064 410.732 716.274C409.593 716.485 408.92 717.967 407.738 720.38C406.599 722.749 404.322 722.961 402.425 723.088C400.527 723.173 398.966 720.887 398.925 720.337C398.882 719.745 399.895 717.967 399.725 715.598C399.599 713.226 401.117 706.159 399.852 704.254C399.05 703.027 399.515 700.403 399.936 698.625C400.189 697.566 400.442 696.847 400.442 696.847C400.542 696.554 400.669 696.271 400.822 696.001C401.075 695.45 401.37 694.815 401.707 694.139C402.087 693.334 402.593 692.445 403.142 691.472C406.117 686.235 409.516 681.252 413.305 676.575C417.775 670.987 423.257 665.231 429.755 660.153C433.919 656.849 438.429 654.01 443.207 651.688C443.626 651.856 443.71 655.031 443.542 659.644Z" fill="#EFCDAF"/>
<path d="M449.434 684.616C449.7 683.935 449.562 672.349 457.896 669.969C466.229 667.59 470.789 671.25 481.187 667.039C491.585 662.828 502.539 659.35 503.626 663.928C504.712 668.506 502.713 681.321 503.626 687.18C504.538 693.039 484.796 695.117 476.698 691.513C468.6 687.91 446.503 692.123 449.434 684.616Z" fill="#3C3C3C"/>
<path d="M538.182 656.741C538.182 656.741 543.578 661.364 544.489 669.599C545.4 677.834 542.848 714.046 542.848 714.046L540.766 713.929L538.53 673.88L538.182 656.741Z" fill="#3C3C3C"/>
<path d="M540.413 718.649C540.413 718.649 544.913 713.789 542.117 712.69C539.321 711.592 540.413 714.887 540.413 716.168V718.649Z" fill="#3C3C3C"/>
<path d="M535.811 655.115C530.582 657.697 524.804 660.067 521.388 660.153C513.924 660.28 495.79 655.962 488.41 655.496C481.031 655.029 451.131 661.972 444.088 659.729C443.915 659.656 443.727 659.626 443.541 659.643C441.98 659.516 439.618 660.618 436.708 662.396C435.065 663.453 433.25 664.723 431.352 666.163C419.08 675.473 403.141 691.472 403.141 691.472C406.115 686.235 409.515 681.252 413.304 676.575C417.774 670.987 423.256 665.231 429.753 660.153C433.918 656.849 438.428 654.01 443.205 651.687C447.381 650.375 452.357 652.746 454.424 652.619C456.828 652.534 459.19 652.11 461.341 651.772C462.226 651.603 463.027 651.476 463.786 651.349C468.002 650.714 493.559 654.016 511.609 654.524C515.319 654.651 518.693 654.61 521.518 654.44C521.73 654.44 521.94 654.397 522.15 654.397C529.696 653.972 533.703 654.438 535.811 655.115Z" fill="#FFE7D7"/>
<path d="M511.601 654.522C508.338 657.192 502.078 658.259 493.229 656.603C482.466 654.589 479.913 659.35 470.974 659.716C463.087 660.034 461.591 653.348 461.348 651.767C462.218 651.622 463.042 651.481 463.804 651.365C467.991 650.728 493.571 654.003 511.601 654.522Z" fill="#3C3C3C"/>
<path d="M431.186 672.299C431.006 673.162 430.766 674.01 430.468 674.839C430.072 675.789 429.607 676.709 429.076 677.59C424.311 685.21 428.823 694.351 429.921 701.377C422.329 702.942 420.221 705.822 419.504 707.176C418.155 709.886 411.828 716.065 410.732 716.275C409.594 716.486 408.92 717.969 407.738 720.382C406.6 722.75 404.322 722.963 402.426 723.09C400.528 723.174 398.966 720.888 398.925 720.339C398.883 719.747 399.895 717.969 399.726 715.599C399.599 713.227 401.118 706.16 399.852 704.255C399.05 703.028 399.515 700.404 399.936 698.626C398.587 698.626 396.689 698.288 395.93 696.51C395.93 696.51 396.309 695.579 398.123 695.325H398.334C397.79 694.963 397.364 694.447 397.111 693.844C397.111 693.844 397.491 692.955 399.303 692.701C400.654 692.531 402.003 691.601 403.142 691.474C406.117 686.236 409.516 681.253 413.306 676.576C417.775 670.988 423.257 665.232 429.755 660.154C430.534 662.084 431.072 664.102 431.357 666.164C431.635 668.205 431.578 670.278 431.186 672.299Z" fill="#3C3C3C"/>
<path d="M535.273 682.238C535.353 683.467 535.387 684.635 535.379 685.748C526.12 692.642 509.878 689.162 508.657 680.87C507.252 671.319 520.045 669.969 519.107 662.097C518.724 658.888 520.23 656.316 522.15 654.397C538.031 653.452 538.181 656.742 538.181 656.742C545.373 663.807 535.273 682.238 535.273 682.238Z" fill="#3C3C3C"/>
</g>
<path d="M106.37 168.28C106.79 168.726 107.169 169.209 107.504 169.722C108.643 171.464 109.24 173.504 109.219 175.585C109.199 177.666 108.561 179.694 107.387 181.413C106.214 183.131 104.557 184.463 102.626 185.24C100.695 186.016 98.5777 186.203 96.541 185.775V185.771L96.5457 185.757C96.5479 185.754 96.5457 185.752 96.5479 185.75C96.5454 185.742 96.5479 185.74 96.5479 185.735L97.3699 181.818L100.854 165.18L100.856 165.182C100.919 165.194 100.98 165.208 101.044 165.224C101.187 165.255 101.327 165.292 101.47 165.332C101.603 165.367 101.734 165.404 101.865 165.447C102.059 165.505 102.253 165.573 102.441 165.648C102.528 165.679 102.612 165.711 102.694 165.746C102.818 165.795 102.935 165.847 103.057 165.903C103.146 165.941 103.233 165.986 103.32 166.03C103.387 166.06 103.453 166.093 103.521 166.128C103.783 166.264 104.041 166.409 104.294 166.568C105.058 167.046 105.756 167.621 106.37 168.28Z" fill="url(#paint1_linear_62_873)"/>
<g style="mix-blend-mode:multiply" opacity="0.16">
<g style="mix-blend-mode:multiply">
<path d="M104.294 166.567L96.541 185.774L100.854 165.179C102.074 165.434 103.238 165.904 104.294 166.567Z" fill="#88EE03"/>
</g>
</g>
<path d="M101.685 161.22V161.225C101.682 161.227 101.685 161.234 101.68 161.239C101.681 161.246 101.681 161.253 101.678 161.26L100.856 165.182L97.3695 181.818C97.3038 181.804 97.2428 181.79 97.1796 181.773C94.5227 181.172 92.2051 179.559 90.7195 177.276C90.523 176.974 90.3417 176.663 90.1764 176.344C90.1764 176.344 90.1739 176.336 90.1694 176.327C90.1601 176.314 90.1522 176.3 90.1459 176.285C89.2565 174.537 88.8734 172.576 89.04 170.622C89.2065 168.668 89.9161 166.8 91.0885 165.228C92.2608 163.656 93.8494 162.444 95.6746 161.727C97.4999 161.011 99.4891 160.819 101.418 161.173C101.427 161.173 101.434 161.175 101.439 161.175C101.521 161.187 101.603 161.204 101.685 161.22Z" fill="url(#paint2_linear_62_873)"/>
<g style="mix-blend-mode:multiply" opacity="0.25">
<g style="mix-blend-mode:multiply">
<path d="M101.044 165.223C100.85 166.354 100.61 167.656 100.341 169.049C100.201 169.77 100.063 170.518 99.9057 171.274C99.7489 172.029 99.5942 172.798 99.4374 173.564C99.2736 174.332 99.1073 175.097 98.9457 175.854C98.7795 176.605 98.6132 177.347 98.4541 178.064C98.1285 179.499 97.8148 180.835 97.5291 181.976C97.2519 183.119 96.9928 184.067 96.8243 184.732C96.6722 185.314 96.5691 185.675 96.5458 185.756C96.5441 185.749 96.5449 185.741 96.548 185.735L100.854 165.179C100.917 165.191 100.98 165.207 101.044 165.223Z" fill="#88EE03"/>
</g>
</g>
<g style="mix-blend-mode:screen" opacity="0.7">
<g style="mix-blend-mode:screen">
<path d="M101.68 161.239C101.682 161.246 101.681 161.254 101.678 161.26L97.3695 181.819C97.3038 181.804 97.2429 181.791 97.1797 181.774C97.3764 180.646 97.6153 179.339 97.8844 177.946C98.0249 177.225 98.1701 176.48 98.3201 175.721C98.4747 174.968 98.6315 174.197 98.7884 173.431C98.9522 172.664 99.1185 171.898 99.28 171.142C99.4369 170.385 99.6126 169.648 99.7716 168.931C100.095 167.498 100.411 166.161 100.694 165.016C100.971 163.874 101.233 162.928 101.401 162.263C101.554 161.68 101.657 161.319 101.68 161.239Z" fill="black"/>
</g>
</g>
<g style="mix-blend-mode:screen" opacity="0.25">
<g style="mix-blend-mode:screen">
<path d="M105.18 168.954C105.636 169.407 106.043 169.908 106.392 170.448C107.056 171.458 107.513 172.589 107.738 173.776C107.963 174.963 107.952 176.183 107.704 177.366C107.457 178.548 106.978 179.67 106.296 180.667C105.613 181.665 104.741 182.517 103.728 183.176C102.072 184.268 100.104 184.789 98.125 184.659L98.1483 184.548L105.18 168.954Z" fill="black"/>
</g>
</g>
<g style="mix-blend-mode:screen" opacity="0.25">
<g style="mix-blend-mode:screen">
<path d="M100.098 162.336L100.052 162.556L91.8964 176.654C91.8731 176.622 91.8473 176.587 91.8263 176.552C91.1635 175.541 90.7067 174.409 90.4821 173.222C90.2576 172.034 90.2697 170.814 90.5178 169.631C90.7658 168.448 91.245 167.325 91.9277 166.328C92.6104 165.33 93.4834 164.478 94.4964 163.818C96.153 162.729 98.1197 162.208 100.098 162.336Z" fill="black"/>
</g>
</g>
<g style="mix-blend-mode:multiply" opacity="0.16">
<g style="mix-blend-mode:multiply">
<path d="M106.37 168.279C106.79 168.726 107.169 169.209 107.504 169.722C108.643 171.463 109.24 173.504 109.219 175.585C109.199 177.665 108.561 179.694 107.387 181.412C106.214 183.131 104.557 184.463 102.626 185.239C100.695 186.016 98.5777 186.202 96.541 185.775C97.0898 185.85 97.6425 185.891 98.1963 185.899C99.2921 185.897 100.382 185.734 101.43 185.414C102.468 185.098 103.452 184.623 104.345 184.007L104.991 183.52C105.213 183.363 105.396 183.162 105.601 182.986L105.898 182.712L106.17 182.412C106.355 182.219 106.529 182.015 106.692 181.801L107.17 181.15L107.582 180.458C107.729 180.23 107.825 179.975 107.949 179.739C108.07 179.498 108.173 179.249 108.258 178.994C108.448 178.49 108.599 177.973 108.71 177.446L108.849 176.648C108.877 176.381 108.894 176.112 108.915 175.843C108.932 175.573 108.935 175.302 108.924 175.032L108.919 174.625L108.875 174.224C108.821 173.684 108.73 173.148 108.601 172.621L108.362 171.839C108.289 171.574 108.163 171.335 108.067 171.08C108.015 170.954 107.969 170.827 107.912 170.701L107.718 170.333C107.585 170.092 107.469 169.83 107.323 169.605C107.033 169.144 106.715 168.701 106.37 168.279Z" fill="#88EE03"/>
</g>
</g>
<g style="mix-blend-mode:screen" opacity="0.7">
<g style="mix-blend-mode:screen">
<path d="M101.417 161.172C101.375 161.167 101.31 161.162 101.223 161.155C101.055 161.132 100.8 161.125 100.481 161.101C100.098 161.088 99.714 161.096 99.3315 161.123C98.2568 161.197 97.1982 161.424 96.1875 161.797C95.5864 162.026 95.0059 162.305 94.4524 162.633C94.3097 162.716 94.1598 162.818 94.0123 162.91C93.8765 162.993 93.7407 163.111 93.6025 163.207C93.4639 163.313 93.3287 163.416 93.1868 163.519C93.0482 163.63 92.9246 163.748 92.791 163.863C92.6622 163.982 92.5264 164.095 92.4 164.217L92.037 164.608C91.7931 164.866 91.5663 165.139 91.358 165.427C91.2464 165.565 91.1439 165.709 91.0512 165.86L90.7586 166.307C90.5785 166.61 90.4238 166.933 90.2598 167.242C90.1309 167.567 89.9763 167.881 89.8663 168.206C89.8125 168.368 89.7609 168.532 89.7069 168.693L89.6274 168.937L89.5719 169.18C89.5018 169.508 89.4104 169.824 89.373 170.147C89.3182 170.459 89.2823 170.774 89.2654 171.09C89.2402 171.389 89.2324 171.689 89.2419 171.989C89.2383 172.269 89.2516 172.55 89.2818 172.829C89.3123 173.098 89.3425 173.358 89.3707 173.602C89.4198 173.848 89.4644 174.075 89.5065 174.295C89.5955 174.725 89.7282 175.088 89.8114 175.4C90.0151 175.927 90.1417 176.255 90.1675 176.327C90.1719 176.336 90.1744 176.344 90.1744 176.344C90.1744 176.344 90.1628 176.323 90.1439 176.285C89.2545 174.537 88.8714 172.576 89.038 170.622C89.2046 168.668 89.9141 166.8 91.0865 165.228C92.2589 163.656 93.8474 162.444 95.6727 161.727C97.4979 161.011 99.4872 160.819 101.416 161.173L101.417 161.172Z" fill="black"/>
</g>
</g>
<path opacity="0.05" d="M238.71 1080.18H0V944C15.09 944.16 30.1633 944.833 45.22 946.02C94.94 949.94 146.64 960.44 184.9 992.43C211.66 1014.81 229.65 1046.36 238.71 1080.18Z" fill="url(#paint3_linear_62_873)"/>
<g opacity="0.05">
<path opacity="0.05" d="M102 0H580C598.565 0 616.37 7.37498 629.497 20.5025C642.625 33.6301 650 51.4348 650 70V299H102V0Z" fill="url(#paint4_linear_62_873)"/>
</g>
<path d="M108.188 252.793L101.068 278H97.6055L92.4199 259.578C92.1973 258.793 92.0625 257.938 92.0156 257.012H91.9453C91.875 257.879 91.7227 258.723 91.4883 259.543L86.2676 278H82.8398L75.457 252.793H78.709L84.0703 272.129C84.293 272.938 84.4336 273.781 84.4922 274.66H84.5801C84.6387 274.039 84.8203 273.195 85.125 272.129L90.6973 252.793H93.5273L98.8711 272.27C99.0586 272.938 99.1992 273.723 99.293 274.625H99.3633C99.4102 274.016 99.5684 273.207 99.8379 272.199L104.988 252.793H108.188ZM125.309 278H111.949V252.793H124.746V255.465H114.902V263.85H124.008V266.504H114.902V275.328H125.309V278ZM143.238 278H130.16V252.793H133.113V275.328H143.238V278ZM163.031 276.945C161.168 277.93 158.848 278.422 156.07 278.422C152.484 278.422 149.613 277.268 147.457 274.959C145.301 272.65 144.223 269.621 144.223 265.871C144.223 261.84 145.436 258.582 147.861 256.098C150.287 253.613 153.363 252.371 157.09 252.371C159.48 252.371 161.461 252.717 163.031 253.408V256.555C161.227 255.547 159.234 255.043 157.055 255.043C154.16 255.043 151.811 256.01 150.006 257.943C148.213 259.877 147.316 262.461 147.316 265.695C147.316 268.766 148.154 271.215 149.83 273.043C151.518 274.859 153.727 275.768 156.457 275.768C158.988 275.768 161.18 275.205 163.031 274.08V276.945ZM177.34 278.422C173.766 278.422 170.9 277.244 168.744 274.889C166.6 272.533 165.527 269.469 165.527 265.695C165.527 261.641 166.623 258.406 168.814 255.992C171.006 253.578 173.988 252.371 177.762 252.371C181.242 252.371 184.043 253.543 186.164 255.887C188.297 258.23 189.363 261.295 189.363 265.08C189.363 269.193 188.273 272.445 186.094 274.836C183.914 277.227 180.996 278.422 177.34 278.422ZM177.551 255.043C174.902 255.043 172.752 255.998 171.1 257.908C169.447 259.818 168.621 262.326 168.621 265.432C168.621 268.537 169.424 271.039 171.029 272.938C172.646 274.824 174.75 275.768 177.34 275.768C180.105 275.768 182.285 274.865 183.879 273.061C185.473 271.256 186.27 268.73 186.27 265.484C186.27 262.156 185.496 259.584 183.949 257.768C182.402 255.951 180.27 255.043 177.551 255.043ZM220.02 278H217.084V261.09C217.084 259.754 217.166 258.119 217.33 256.186H217.26C216.979 257.322 216.727 258.137 216.504 258.629L207.891 278H206.449L197.854 258.77C197.607 258.207 197.355 257.346 197.098 256.186H197.027C197.121 257.193 197.168 258.84 197.168 261.125V278H194.32V252.793H198.223L205.957 270.371C206.555 271.719 206.941 272.727 207.117 273.395H207.223C207.727 272.012 208.131 270.98 208.436 270.301L216.328 252.793H220.02V278ZM240.023 278H226.664V252.793H239.461V255.465H229.617V263.85H238.723V266.504H229.617V275.328H240.023V278ZM248.162 252.793L247.828 270.898H245.455L245.139 252.793H248.162ZM246.686 278.316C246.146 278.316 245.684 278.129 245.297 277.754C244.922 277.379 244.734 276.922 244.734 276.383C244.734 275.844 244.922 275.387 245.297 275.012C245.684 274.625 246.146 274.432 246.686 274.432C247.213 274.432 247.67 274.625 248.057 275.012C248.443 275.387 248.637 275.844 248.637 276.383C248.637 276.922 248.443 277.379 248.057 277.754C247.67 278.129 247.213 278.316 246.686 278.316Z" fill="#272B41"/>
<path d="M84.2578 319H76.8359V304.996H83.9453V306.48H78.4766V311.139H83.5352V312.613H78.4766V317.516H84.2578V319ZM95.0391 319H93.4375V313.297C93.4375 311.174 92.6628 310.113 91.1133 310.113C90.3125 310.113 89.6484 310.416 89.1211 311.021C88.6003 311.62 88.3398 312.379 88.3398 313.297V319H86.7383V309H88.3398V310.66H88.3789C89.1341 309.397 90.2279 308.766 91.6602 308.766C92.7539 308.766 93.5905 309.12 94.1699 309.83C94.7493 310.533 95.0391 311.552 95.0391 312.887V319ZM102.705 318.902C102.327 319.111 101.829 319.215 101.211 319.215C99.4596 319.215 98.584 318.238 98.584 316.285V310.367H96.8652V309H98.584V306.559L100.186 306.041V309H102.705V310.367H100.186V316.002C100.186 316.673 100.299 317.151 100.527 317.438C100.755 317.724 101.133 317.867 101.66 317.867C102.064 317.867 102.412 317.757 102.705 317.535V318.902ZM112.881 314.4H105.82C105.846 315.514 106.146 316.373 106.719 316.979C107.292 317.584 108.079 317.887 109.082 317.887C110.208 317.887 111.243 317.516 112.188 316.773V318.277C111.309 318.915 110.146 319.234 108.701 319.234C107.288 319.234 106.178 318.782 105.371 317.877C104.564 316.965 104.16 315.686 104.16 314.039C104.16 312.483 104.6 311.217 105.479 310.24C106.364 309.257 107.461 308.766 108.77 308.766C110.078 308.766 111.09 309.189 111.807 310.035C112.523 310.882 112.881 312.057 112.881 313.561V314.4ZM111.24 313.043C111.234 312.118 111.009 311.399 110.566 310.885C110.13 310.37 109.521 310.113 108.74 310.113C107.985 310.113 107.344 310.383 106.816 310.924C106.289 311.464 105.964 312.171 105.84 313.043H111.24ZM120.527 310.621C120.247 310.406 119.844 310.299 119.316 310.299C118.633 310.299 118.06 310.621 117.598 311.266C117.142 311.91 116.914 312.789 116.914 313.902V319H115.312V309H116.914V311.061H116.953C117.181 310.357 117.529 309.811 117.998 309.42C118.467 309.023 118.991 308.824 119.57 308.824C119.987 308.824 120.306 308.87 120.527 308.961V310.621ZM135.713 309L131.113 320.602C130.293 322.672 129.141 323.707 127.656 323.707C127.24 323.707 126.891 323.665 126.611 323.58V322.145C126.956 322.262 127.272 322.32 127.559 322.32C128.366 322.32 128.971 321.839 129.375 320.875L130.176 318.98L126.27 309H128.047L130.752 316.695C130.785 316.793 130.853 317.047 130.957 317.457H131.016C131.048 317.301 131.113 317.053 131.211 316.715L134.053 309H135.713ZM141.621 319.234C140.143 319.234 138.962 318.769 138.076 317.838C137.197 316.9 136.758 315.66 136.758 314.117C136.758 312.438 137.217 311.126 138.135 310.182C139.053 309.238 140.293 308.766 141.855 308.766C143.346 308.766 144.508 309.225 145.342 310.143C146.182 311.061 146.602 312.333 146.602 313.961C146.602 315.556 146.149 316.835 145.244 317.799C144.346 318.756 143.138 319.234 141.621 319.234ZM141.738 310.113C140.71 310.113 139.896 310.465 139.297 311.168C138.698 311.865 138.398 312.828 138.398 314.059C138.398 315.243 138.701 316.178 139.307 316.861C139.912 317.545 140.723 317.887 141.738 317.887C142.773 317.887 143.568 317.551 144.121 316.881C144.681 316.21 144.961 315.257 144.961 314.02C144.961 312.77 144.681 311.806 144.121 311.129C143.568 310.452 142.773 310.113 141.738 310.113ZM157.246 319H155.645V317.418H155.605C154.941 318.629 153.913 319.234 152.52 319.234C150.137 319.234 148.945 317.815 148.945 314.977V309H150.537V314.723C150.537 316.832 151.344 317.887 152.959 317.887C153.74 317.887 154.382 317.6 154.883 317.027C155.391 316.448 155.645 315.693 155.645 314.762V309H157.246V319ZM165.703 310.621C165.423 310.406 165.02 310.299 164.492 310.299C163.809 310.299 163.236 310.621 162.773 311.266C162.318 311.91 162.09 312.789 162.09 313.902V319H160.488V309H162.09V311.061H162.129C162.357 310.357 162.705 309.811 163.174 309.42C163.643 309.023 164.167 308.824 164.746 308.824C165.163 308.824 165.482 308.87 165.703 308.961V310.621ZM181.465 319H179.863V317.301H179.824C179.082 318.59 177.936 319.234 176.387 319.234C175.13 319.234 174.124 318.788 173.369 317.896C172.62 316.998 172.246 315.777 172.246 314.234C172.246 312.581 172.663 311.256 173.496 310.26C174.329 309.264 175.439 308.766 176.826 308.766C178.2 308.766 179.199 309.306 179.824 310.387H179.863V304.195H181.465V319ZM179.863 314.479V313.004C179.863 312.197 179.596 311.513 179.062 310.953C178.529 310.393 177.852 310.113 177.031 310.113C176.055 310.113 175.286 310.471 174.727 311.188C174.167 311.904 173.887 312.893 173.887 314.156C173.887 315.309 174.154 316.22 174.688 316.891C175.228 317.555 175.951 317.887 176.855 317.887C177.747 317.887 178.47 317.564 179.023 316.92C179.583 316.275 179.863 315.462 179.863 314.479ZM192.744 314.4H185.684C185.71 315.514 186.009 316.373 186.582 316.979C187.155 317.584 187.943 317.887 188.945 317.887C190.072 317.887 191.107 317.516 192.051 316.773V318.277C191.172 318.915 190.01 319.234 188.564 319.234C187.152 319.234 186.042 318.782 185.234 317.877C184.427 316.965 184.023 315.686 184.023 314.039C184.023 312.483 184.463 311.217 185.342 310.24C186.227 309.257 187.324 308.766 188.633 308.766C189.941 308.766 190.954 309.189 191.67 310.035C192.386 310.882 192.744 312.057 192.744 313.561V314.4ZM191.104 313.043C191.097 312.118 190.872 311.399 190.43 310.885C189.993 310.37 189.385 310.113 188.604 310.113C187.848 310.113 187.207 310.383 186.68 310.924C186.152 311.464 185.827 312.171 185.703 313.043H191.104ZM199.814 318.902C199.437 319.111 198.939 319.215 198.32 319.215C196.569 319.215 195.693 318.238 195.693 316.285V310.367H193.975V309H195.693V306.559L197.295 306.041V309H199.814V310.367H197.295V316.002C197.295 316.673 197.409 317.151 197.637 317.438C197.865 317.724 198.242 317.867 198.77 317.867C199.173 317.867 199.521 317.757 199.814 317.535V318.902ZM209.111 319H207.51V317.438H207.471C206.774 318.635 205.749 319.234 204.395 319.234C203.398 319.234 202.617 318.971 202.051 318.443C201.491 317.916 201.211 317.216 201.211 316.344C201.211 314.475 202.311 313.388 204.512 313.082L207.51 312.662C207.51 310.963 206.823 310.113 205.449 310.113C204.245 310.113 203.158 310.523 202.188 311.344V309.703C203.171 309.078 204.303 308.766 205.586 308.766C207.936 308.766 209.111 310.009 209.111 312.496V319ZM207.51 313.941L205.098 314.273C204.355 314.378 203.796 314.563 203.418 314.83C203.04 315.09 202.852 315.556 202.852 316.227C202.852 316.715 203.024 317.115 203.369 317.428C203.721 317.734 204.186 317.887 204.766 317.887C205.56 317.887 206.214 317.61 206.729 317.057C207.249 316.497 207.51 315.79 207.51 314.938V313.941ZM212.949 306.461C212.663 306.461 212.419 306.363 212.217 306.168C212.015 305.973 211.914 305.725 211.914 305.426C211.914 305.126 212.015 304.879 212.217 304.684C212.419 304.482 212.663 304.381 212.949 304.381C213.242 304.381 213.49 304.482 213.691 304.684C213.9 304.879 214.004 305.126 214.004 305.426C214.004 305.712 213.9 305.956 213.691 306.158C213.49 306.36 213.242 306.461 212.949 306.461ZM213.73 319H212.129V309H213.73V319ZM218.574 319H216.973V304.195H218.574V319ZM221.211 318.639V316.92C222.083 317.564 223.044 317.887 224.092 317.887C225.498 317.887 226.201 317.418 226.201 316.48C226.201 316.214 226.139 315.989 226.016 315.807C225.898 315.618 225.736 315.452 225.527 315.309C225.326 315.165 225.085 315.038 224.805 314.928C224.531 314.811 224.235 314.69 223.916 314.566C223.473 314.391 223.083 314.215 222.744 314.039C222.412 313.857 222.132 313.655 221.904 313.434C221.683 313.206 221.514 312.949 221.396 312.662C221.286 312.376 221.23 312.04 221.23 311.656C221.23 311.188 221.338 310.774 221.553 310.416C221.768 310.051 222.054 309.749 222.412 309.508C222.77 309.26 223.177 309.075 223.633 308.951C224.095 308.827 224.57 308.766 225.059 308.766C225.924 308.766 226.699 308.915 227.383 309.215V310.836C226.647 310.354 225.801 310.113 224.844 310.113C224.544 310.113 224.274 310.149 224.033 310.221C223.792 310.286 223.584 310.38 223.408 310.504C223.239 310.628 223.105 310.777 223.008 310.953C222.917 311.122 222.871 311.311 222.871 311.52C222.871 311.78 222.917 311.998 223.008 312.174C223.105 312.35 223.245 312.506 223.428 312.643C223.61 312.779 223.831 312.903 224.092 313.014C224.352 313.124 224.648 313.245 224.98 313.375C225.423 313.544 225.82 313.72 226.172 313.902C226.523 314.078 226.823 314.28 227.07 314.508C227.318 314.729 227.507 314.986 227.637 315.279C227.773 315.572 227.842 315.921 227.842 316.324C227.842 316.819 227.731 317.249 227.51 317.613C227.295 317.978 227.005 318.281 226.641 318.521C226.276 318.762 225.856 318.941 225.381 319.059C224.906 319.176 224.408 319.234 223.887 319.234C222.858 319.234 221.966 319.036 221.211 318.639ZM240.439 318.902C240.062 319.111 239.564 319.215 238.945 319.215C237.194 319.215 236.318 318.238 236.318 316.285V310.367H234.6V309H236.318V306.559L237.92 306.041V309H240.439V310.367H237.92V316.002C237.92 316.673 238.034 317.151 238.262 317.438C238.49 317.724 238.867 317.867 239.395 317.867C239.798 317.867 240.146 317.757 240.439 317.535V318.902ZM246.758 319.234C245.28 319.234 244.098 318.769 243.213 317.838C242.334 316.9 241.895 315.66 241.895 314.117C241.895 312.438 242.354 311.126 243.271 310.182C244.189 309.238 245.43 308.766 246.992 308.766C248.483 308.766 249.645 309.225 250.479 310.143C251.318 311.061 251.738 312.333 251.738 313.961C251.738 315.556 251.286 316.835 250.381 317.799C249.482 318.756 248.275 319.234 246.758 319.234ZM246.875 310.113C245.846 310.113 245.033 310.465 244.434 311.168C243.835 311.865 243.535 312.828 243.535 314.059C243.535 315.243 243.838 316.178 244.443 316.861C245.049 317.545 245.859 317.887 246.875 317.887C247.91 317.887 248.704 317.551 249.258 316.881C249.818 316.21 250.098 315.257 250.098 314.02C250.098 312.77 249.818 311.806 249.258 311.129C248.704 310.452 247.91 310.113 246.875 310.113ZM259.18 318.639V316.92C260.052 317.564 261.012 317.887 262.061 317.887C263.467 317.887 264.17 317.418 264.17 316.48C264.17 316.214 264.108 315.989 263.984 315.807C263.867 315.618 263.704 315.452 263.496 315.309C263.294 315.165 263.053 315.038 262.773 314.928C262.5 314.811 262.204 314.69 261.885 314.566C261.442 314.391 261.051 314.215 260.713 314.039C260.381 313.857 260.101 313.655 259.873 313.434C259.652 313.206 259.482 312.949 259.365 312.662C259.255 312.376 259.199 312.04 259.199 311.656C259.199 311.188 259.307 310.774 259.521 310.416C259.736 310.051 260.023 309.749 260.381 309.508C260.739 309.26 261.146 309.075 261.602 308.951C262.064 308.827 262.539 308.766 263.027 308.766C263.893 308.766 264.668 308.915 265.352 309.215V310.836C264.616 310.354 263.77 310.113 262.812 310.113C262.513 310.113 262.243 310.149 262.002 310.221C261.761 310.286 261.553 310.38 261.377 310.504C261.208 310.628 261.074 310.777 260.977 310.953C260.885 311.122 260.84 311.311 260.84 311.52C260.84 311.78 260.885 311.998 260.977 312.174C261.074 312.35 261.214 312.506 261.396 312.643C261.579 312.779 261.8 312.903 262.061 313.014C262.321 313.124 262.617 313.245 262.949 313.375C263.392 313.544 263.789 313.72 264.141 313.902C264.492 314.078 264.792 314.28 265.039 314.508C265.286 314.729 265.475 314.986 265.605 315.279C265.742 315.572 265.811 315.921 265.811 316.324C265.811 316.819 265.7 317.249 265.479 317.613C265.264 317.978 264.974 318.281 264.609 318.521C264.245 318.762 263.825 318.941 263.35 319.059C262.874 319.176 262.376 319.234 261.855 319.234C260.827 319.234 259.935 319.036 259.18 318.639ZM272.92 318.902C272.542 319.111 272.044 319.215 271.426 319.215C269.674 319.215 268.799 318.238 268.799 316.285V310.367H267.08V309H268.799V306.559L270.4 306.041V309H272.92V310.367H270.4V316.002C270.4 316.673 270.514 317.151 270.742 317.438C270.97 317.724 271.348 317.867 271.875 317.867C272.279 317.867 272.627 317.757 272.92 317.535V318.902ZM282.217 319H280.615V317.438H280.576C279.88 318.635 278.854 319.234 277.5 319.234C276.504 319.234 275.723 318.971 275.156 318.443C274.596 317.916 274.316 317.216 274.316 316.344C274.316 314.475 275.417 313.388 277.617 313.082L280.615 312.662C280.615 310.963 279.928 310.113 278.555 310.113C277.35 310.113 276.263 310.523 275.293 311.344V309.703C276.276 309.078 277.409 308.766 278.691 308.766C281.042 308.766 282.217 310.009 282.217 312.496V319ZM280.615 313.941L278.203 314.273C277.461 314.378 276.901 314.563 276.523 314.83C276.146 315.09 275.957 315.556 275.957 316.227C275.957 316.715 276.13 317.115 276.475 317.428C276.826 317.734 277.292 317.887 277.871 317.887C278.665 317.887 279.32 317.61 279.834 317.057C280.355 316.497 280.615 315.79 280.615 314.938V313.941ZM290.449 310.621C290.169 310.406 289.766 310.299 289.238 310.299C288.555 310.299 287.982 310.621 287.52 311.266C287.064 311.91 286.836 312.789 286.836 313.902V319H285.234V309H286.836V311.061H286.875C287.103 310.357 287.451 309.811 287.92 309.42C288.389 309.023 288.913 308.824 289.492 308.824C289.909 308.824 290.228 308.87 290.449 308.961V310.621ZM296.826 318.902C296.449 319.111 295.951 319.215 295.332 319.215C293.581 319.215 292.705 318.238 292.705 316.285V310.367H290.986V309H292.705V306.559L294.307 306.041V309H296.826V310.367H294.307V316.002C294.307 316.673 294.421 317.151 294.648 317.438C294.876 317.724 295.254 317.867 295.781 317.867C296.185 317.867 296.533 317.757 296.826 317.535V318.902ZM312.412 309L307.812 320.602C306.992 322.672 305.84 323.707 304.355 323.707C303.939 323.707 303.59 323.665 303.311 323.58V322.145C303.656 322.262 303.971 322.32 304.258 322.32C305.065 322.32 305.671 321.839 306.074 320.875L306.875 318.98L302.969 309H304.746L307.451 316.695C307.484 316.793 307.552 317.047 307.656 317.457H307.715C307.747 317.301 307.812 317.053 307.91 316.715L310.752 309H312.412ZM318.32 319.234C316.842 319.234 315.661 318.769 314.775 317.838C313.896 316.9 313.457 315.66 313.457 314.117C313.457 312.438 313.916 311.126 314.834 310.182C315.752 309.238 316.992 308.766 318.555 308.766C320.046 308.766 321.208 309.225 322.041 310.143C322.881 311.061 323.301 312.333 323.301 313.961C323.301 315.556 322.848 316.835 321.943 317.799C321.045 318.756 319.837 319.234 318.32 319.234ZM318.438 310.113C317.409 310.113 316.595 310.465 315.996 311.168C315.397 311.865 315.098 312.828 315.098 314.059C315.098 315.243 315.4 316.178 316.006 316.861C316.611 317.545 317.422 317.887 318.438 317.887C319.473 317.887 320.267 317.551 320.82 316.881C321.38 316.21 321.66 315.257 321.66 314.02C321.66 312.77 321.38 311.806 320.82 311.129C320.267 310.452 319.473 310.113 318.438 310.113ZM333.945 319H332.344V317.418H332.305C331.641 318.629 330.612 319.234 329.219 319.234C326.836 319.234 325.645 317.815 325.645 314.977V309H327.236V314.723C327.236 316.832 328.044 317.887 329.658 317.887C330.439 317.887 331.081 317.6 331.582 317.027C332.09 316.448 332.344 315.693 332.344 314.762V309H333.945V319ZM342.402 310.621C342.122 310.406 341.719 310.299 341.191 310.299C340.508 310.299 339.935 310.621 339.473 311.266C339.017 311.91 338.789 312.789 338.789 313.902V319H337.188V309H338.789V311.061H338.828C339.056 310.357 339.404 309.811 339.873 309.42C340.342 309.023 340.866 308.824 341.445 308.824C341.862 308.824 342.181 308.87 342.402 308.961V310.621ZM351.23 318.58C351.23 320.221 350.898 321.484 350.234 322.369C349.577 323.261 348.633 323.707 347.402 323.707C346.947 323.707 346.504 323.603 346.074 323.395V321.9C346.556 322.193 347.012 322.34 347.441 322.34C348.9 322.34 349.629 321.174 349.629 318.844V309H351.23V318.58ZM350.449 306.461C350.163 306.461 349.919 306.363 349.717 306.168C349.515 305.973 349.414 305.725 349.414 305.426C349.414 305.126 349.515 304.879 349.717 304.684C349.919 304.482 350.163 304.381 350.449 304.381C350.742 304.381 350.99 304.482 351.191 304.684C351.4 304.879 351.504 305.126 351.504 305.426C351.504 305.712 351.4 305.956 351.191 306.158C350.99 306.36 350.742 306.461 350.449 306.461ZM358.652 319.234C357.174 319.234 355.993 318.769 355.107 317.838C354.229 316.9 353.789 315.66 353.789 314.117C353.789 312.438 354.248 311.126 355.166 310.182C356.084 309.238 357.324 308.766 358.887 308.766C360.378 308.766 361.54 309.225 362.373 310.143C363.213 311.061 363.633 312.333 363.633 313.961C363.633 315.556 363.18 316.835 362.275 317.799C361.377 318.756 360.169 319.234 358.652 319.234ZM358.77 310.113C357.741 310.113 356.927 310.465 356.328 311.168C355.729 311.865 355.43 312.828 355.43 314.059C355.43 315.243 355.732 316.178 356.338 316.861C356.943 317.545 357.754 317.887 358.77 317.887C359.805 317.887 360.599 317.551 361.152 316.881C361.712 316.21 361.992 315.257 361.992 314.02C361.992 312.77 361.712 311.806 361.152 311.129C360.599 310.452 359.805 310.113 358.77 310.113ZM374.277 319H372.676V317.418H372.637C371.973 318.629 370.944 319.234 369.551 319.234C367.168 319.234 365.977 317.815 365.977 314.977V309H367.568V314.723C367.568 316.832 368.376 317.887 369.99 317.887C370.771 317.887 371.413 317.6 371.914 317.027C372.422 316.448 372.676 315.693 372.676 314.762V309H374.277V319ZM382.734 310.621C382.454 310.406 382.051 310.299 381.523 310.299C380.84 310.299 380.267 310.621 379.805 311.266C379.349 311.91 379.121 312.789 379.121 313.902V319H377.52V309H379.121V311.061H379.16C379.388 310.357 379.736 309.811 380.205 309.42C380.674 309.023 381.198 308.824 381.777 308.824C382.194 308.824 382.513 308.87 382.734 308.961V310.621ZM392.773 319H391.172V313.297C391.172 311.174 390.397 310.113 388.848 310.113C388.047 310.113 387.383 310.416 386.855 311.021C386.335 311.62 386.074 312.379 386.074 313.297V319H384.473V309H386.074V310.66H386.113C386.868 309.397 387.962 308.766 389.395 308.766C390.488 308.766 391.325 309.12 391.904 309.83C392.484 310.533 392.773 311.552 392.773 312.887V319ZM403.838 314.4H396.777C396.803 315.514 397.103 316.373 397.676 316.979C398.249 317.584 399.036 317.887 400.039 317.887C401.165 317.887 402.201 317.516 403.145 316.773V318.277C402.266 318.915 401.104 319.234 399.658 319.234C398.245 319.234 397.135 318.782 396.328 317.877C395.521 316.965 395.117 315.686 395.117 314.039C395.117 312.483 395.557 311.217 396.436 310.24C397.321 309.257 398.418 308.766 399.727 308.766C401.035 308.766 402.048 309.189 402.764 310.035C403.48 310.882 403.838 312.057 403.838 313.561V314.4ZM402.197 313.043C402.191 312.118 401.966 311.399 401.523 310.885C401.087 310.37 400.479 310.113 399.697 310.113C398.942 310.113 398.301 310.383 397.773 310.924C397.246 311.464 396.921 312.171 396.797 313.043H402.197ZM414.229 309L409.629 320.602C408.809 322.672 407.656 323.707 406.172 323.707C405.755 323.707 405.407 323.665 405.127 323.58V322.145C405.472 322.262 405.788 322.32 406.074 322.32C406.882 322.32 407.487 321.839 407.891 320.875L408.691 318.98L404.785 309H406.562L409.268 316.695C409.3 316.793 409.368 317.047 409.473 317.457H409.531C409.564 317.301 409.629 317.053 409.727 316.715L412.568 309H414.229ZM434.043 309L431.045 319H429.385L427.324 311.842C427.246 311.568 427.194 311.259 427.168 310.914H427.129C427.109 311.148 427.041 311.451 426.924 311.822L424.688 319H423.086L420.059 309H421.738L423.809 316.52C423.874 316.747 423.919 317.047 423.945 317.418H424.023C424.043 317.132 424.102 316.826 424.199 316.5L426.504 309H427.969L430.039 316.539C430.104 316.78 430.153 317.079 430.186 317.438H430.264C430.277 317.184 430.332 316.884 430.43 316.539L432.461 309H434.043ZM436.719 306.461C436.432 306.461 436.188 306.363 435.986 306.168C435.785 305.973 435.684 305.725 435.684 305.426C435.684 305.126 435.785 304.879 435.986 304.684C436.188 304.482 436.432 304.381 436.719 304.381C437.012 304.381 437.259 304.482 437.461 304.684C437.669 304.879 437.773 305.126 437.773 305.426C437.773 305.712 437.669 305.956 437.461 306.158C437.259 306.36 437.012 306.461 436.719 306.461ZM437.5 319H435.898V309H437.5V319ZM445.381 318.902C445.003 319.111 444.505 319.215 443.887 319.215C442.135 319.215 441.26 318.238 441.26 316.285V310.367H439.541V309H441.26V306.559L442.861 306.041V309H445.381V310.367H442.861V316.002C442.861 316.673 442.975 317.151 443.203 317.438C443.431 317.724 443.809 317.867 444.336 317.867C444.74 317.867 445.088 317.757 445.381 317.535V318.902ZM455.82 319H454.219V313.238C454.219 311.155 453.444 310.113 451.895 310.113C451.113 310.113 450.456 310.416 449.922 311.021C449.388 311.62 449.121 312.392 449.121 313.336V319H447.52V304.195H449.121V310.66H449.16C449.928 309.397 451.022 308.766 452.441 308.766C454.694 308.766 455.82 310.123 455.82 312.838V319ZM472.422 319H470.82V317.418H470.781C470.117 318.629 469.089 319.234 467.695 319.234C465.312 319.234 464.121 317.815 464.121 314.977V309H465.713V314.723C465.713 316.832 466.52 317.887 468.135 317.887C468.916 317.887 469.557 317.6 470.059 317.027C470.566 316.448 470.82 315.693 470.82 314.762V309H472.422V319ZM475.059 318.639V316.92C475.931 317.564 476.891 317.887 477.939 317.887C479.346 317.887 480.049 317.418 480.049 316.48C480.049 316.214 479.987 315.989 479.863 315.807C479.746 315.618 479.583 315.452 479.375 315.309C479.173 315.165 478.932 315.038 478.652 314.928C478.379 314.811 478.083 314.69 477.764 314.566C477.321 314.391 476.93 314.215 476.592 314.039C476.26 313.857 475.98 313.655 475.752 313.434C475.531 313.206 475.361 312.949 475.244 312.662C475.133 312.376 475.078 312.04 475.078 311.656C475.078 311.188 475.186 310.774 475.4 310.416C475.615 310.051 475.902 309.749 476.26 309.508C476.618 309.26 477.025 309.075 477.48 308.951C477.943 308.827 478.418 308.766 478.906 308.766C479.772 308.766 480.547 308.915 481.23 309.215V310.836C480.495 310.354 479.648 310.113 478.691 310.113C478.392 310.113 478.122 310.149 477.881 310.221C477.64 310.286 477.432 310.38 477.256 310.504C477.087 310.628 476.953 310.777 476.855 310.953C476.764 311.122 476.719 311.311 476.719 311.52C476.719 311.78 476.764 311.998 476.855 312.174C476.953 312.35 477.093 312.506 477.275 312.643C477.458 312.779 477.679 312.903 477.939 313.014C478.2 313.124 478.496 313.245 478.828 313.375C479.271 313.544 479.668 313.72 480.02 313.902C480.371 314.078 480.671 314.28 480.918 314.508C481.165 314.729 481.354 314.986 481.484 315.279C481.621 315.572 481.689 315.921 481.689 316.324C481.689 316.819 481.579 317.249 481.357 317.613C481.143 317.978 480.853 318.281 480.488 318.521C480.124 318.762 479.704 318.941 479.229 319.059C478.753 319.176 478.255 319.234 477.734 319.234C476.706 319.234 475.814 319.036 475.059 318.639ZM484.717 319.215C484.417 319.215 484.16 319.107 483.945 318.893C483.737 318.678 483.633 318.421 483.633 318.121C483.633 317.822 483.737 317.564 483.945 317.35C484.16 317.128 484.417 317.018 484.717 317.018C485.023 317.018 485.283 317.128 485.498 317.35C485.713 317.564 485.82 317.822 485.82 318.121C485.82 318.421 485.713 318.678 485.498 318.893C485.283 319.107 485.023 319.215 484.717 319.215Z" fill="#272B41"/>
<rect x="75.5" y="149.5" width="47" height="47" rx="13.5" stroke="#49780C"/>
<path d="M154.98 184.54C153.04 184.54 151.28 184.15 149.7 183.37C148.14 182.57 146.9 181.39 145.98 179.83C145.06 178.27 144.6 176.36 144.6 174.1C144.6 172.38 144.88 170.87 145.44 169.57C146 168.27 146.76 167.18 147.72 166.3C148.7 165.42 149.82 164.76 151.08 164.32C152.36 163.88 153.71 163.66 155.13 163.66C156.27 163.66 157.32 163.79 158.28 164.05C159.24 164.31 160.14 164.67 160.98 165.13L161.1 168.82H160.8L159.3 166.42C159.1 166.04 158.88 165.7 158.64 165.4C158.4 165.08 158.1 164.84 157.74 164.68C157.44 164.54 157.14 164.44 156.84 164.38C156.56 164.3 156.2 164.26 155.76 164.26C154.6 164.26 153.54 164.57 152.58 165.19C151.64 165.81 150.88 166.84 150.3 168.28C149.74 169.7 149.46 171.65 149.46 174.13C149.46 176.59 149.73 178.54 150.27 179.98C150.81 181.4 151.54 182.42 152.46 183.04C153.4 183.64 154.45 183.94 155.61 183.94C156.25 183.94 156.76 183.9 157.14 183.82C157.52 183.72 157.9 183.58 158.28 183.4C158.66 183.24 158.95 183.01 159.15 182.71C159.35 182.39 159.53 182.05 159.69 181.69L161.01 178.75H161.31L161.22 183.04C160.38 183.48 159.44 183.84 158.4 184.12C157.36 184.4 156.22 184.54 154.98 184.54ZM170.266 184.45C168.746 184.45 167.426 184.14 166.306 183.52C165.186 182.88 164.316 181.98 163.696 180.82C163.096 179.66 162.796 178.3 162.796 176.74C162.796 175.18 163.116 173.83 163.756 172.69C164.416 171.55 165.306 170.67 166.426 170.05C167.566 169.43 168.846 169.12 170.266 169.12C171.686 169.12 172.956 169.43 174.076 170.05C175.196 170.65 176.076 171.52 176.716 172.66C177.376 173.8 177.706 175.16 177.706 176.74C177.706 178.32 177.396 179.69 176.776 180.85C176.176 181.99 175.316 182.88 174.196 183.52C173.096 184.14 171.786 184.45 170.266 184.45ZM170.266 183.85C170.966 183.85 171.526 183.65 171.946 183.25C172.366 182.85 172.666 182.14 172.846 181.12C173.046 180.1 173.146 178.66 173.146 176.8C173.146 174.92 173.046 173.47 172.846 172.45C172.666 171.43 172.366 170.72 171.946 170.32C171.526 169.92 170.966 169.72 170.266 169.72C169.566 169.72 168.996 169.92 168.556 170.32C168.136 170.72 167.826 171.43 167.626 172.45C167.446 173.47 167.356 174.92 167.356 176.8C167.356 178.66 167.446 180.1 167.626 181.12C167.826 182.14 168.136 182.85 168.556 183.25C168.996 183.65 169.566 183.85 170.266 183.85ZM179.024 184V183.7L179.444 183.58C180.144 183.38 180.494 182.89 180.494 182.11V172.72C180.494 172.28 180.424 171.96 180.284 171.76C180.144 171.54 179.874 171.39 179.474 171.31L179.024 171.19V170.89L184.154 169.15L184.454 169.45L184.694 171.25C185.394 170.63 186.184 170.12 187.064 169.72C187.944 169.32 188.814 169.12 189.674 169.12C190.994 169.12 192.004 169.48 192.704 170.2C193.424 170.92 193.784 172.02 193.784 173.5V182.14C193.784 182.92 194.164 183.41 194.924 183.61L195.194 183.7V184H188.114V183.7L188.504 183.58C189.204 183.36 189.554 182.87 189.554 182.11V172.54C189.554 171.26 188.914 170.62 187.634 170.62C186.754 170.62 185.794 171.06 184.754 171.94V182.14C184.754 182.92 185.104 183.41 185.804 183.61L186.074 183.7V184H179.024ZM196.368 184V183.7L196.788 183.58C197.488 183.38 197.838 182.89 197.838 182.11V172.72C197.838 172.28 197.768 171.96 197.628 171.76C197.488 171.54 197.218 171.39 196.818 171.31L196.368 171.19V170.89L201.498 169.15L201.798 169.45L202.038 171.25C202.738 170.63 203.528 170.12 204.408 169.72C205.288 169.32 206.158 169.12 207.018 169.12C208.338 169.12 209.348 169.48 210.048 170.2C210.768 170.92 211.128 172.02 211.128 173.5V182.14C211.128 182.92 211.508 183.41 212.268 183.61L212.538 183.7V184H205.458V183.7L205.848 183.58C206.548 183.36 206.898 182.87 206.898 182.11V172.54C206.898 171.26 206.258 170.62 204.978 170.62C204.098 170.62 203.138 171.06 202.098 171.94V182.14C202.098 182.92 202.448 183.41 203.148 183.61L203.418 183.7V184H196.368ZM221.241 169.12C222.541 169.12 223.651 169.39 224.571 169.93C225.491 170.45 226.191 171.17 226.671 172.09C227.171 172.99 227.421 174.02 227.421 175.18C227.421 175.4 227.411 175.63 227.391 175.87C227.371 176.09 227.331 176.29 227.271 176.47H218.331C218.351 178.63 218.731 180.19 219.471 181.15C220.231 182.09 221.351 182.56 222.831 182.56C223.831 182.56 224.641 182.4 225.261 182.08C225.881 181.76 226.461 181.29 227.001 180.67L227.301 180.94C226.681 182.04 225.851 182.9 224.811 183.52C223.791 184.14 222.561 184.45 221.121 184.45C219.701 184.45 218.441 184.15 217.341 183.55C216.241 182.93 215.381 182.05 214.761 180.91C214.141 179.77 213.831 178.41 213.831 176.83C213.831 175.19 214.191 173.8 214.911 172.66C215.631 171.5 216.551 170.62 217.671 170.02C218.811 169.42 220.001 169.12 221.241 169.12ZM221.151 169.72C220.571 169.72 220.071 169.9 219.651 170.26C219.251 170.6 218.931 171.22 218.691 172.12C218.471 173 218.351 174.25 218.331 175.87H223.461C223.661 173.69 223.581 172.12 223.221 171.16C222.861 170.2 222.171 169.72 221.151 169.72ZM236.356 184.45C234.996 184.45 233.756 184.16 232.636 183.58C231.536 182.98 230.656 182.12 229.996 181C229.356 179.86 229.036 178.47 229.036 176.83C229.036 175.21 229.386 173.83 230.086 172.69C230.806 171.53 231.756 170.65 232.936 170.05C234.136 169.43 235.446 169.12 236.866 169.12C238.026 169.12 239.006 169.31 239.806 169.69C240.606 170.07 241.216 170.57 241.636 171.19C242.056 171.79 242.266 172.42 242.266 173.08C242.266 173.64 242.096 174.08 241.756 174.4C241.416 174.7 240.976 174.85 240.436 174.85C239.856 174.85 239.386 174.64 239.026 174.22C238.666 173.8 238.456 173.25 238.396 172.57C238.376 172.13 238.386 171.76 238.426 171.46C238.466 171.14 238.466 170.82 238.426 170.5C238.346 170.16 238.216 169.94 238.036 169.84C237.876 169.72 237.646 169.66 237.346 169.66C236.126 169.66 235.176 170.19 234.496 171.25C233.836 172.31 233.506 174 233.506 176.32C233.506 178.34 233.876 179.89 234.616 180.97C235.376 182.03 236.536 182.56 238.096 182.56C239.036 182.56 239.796 182.39 240.376 182.05C240.956 181.71 241.516 181.2 242.056 180.52L242.356 180.76C241.856 181.94 241.086 182.85 240.046 183.49C239.006 184.13 237.776 184.45 236.356 184.45ZM249.265 184.45C247.985 184.45 246.985 184.13 246.265 183.49C245.565 182.85 245.215 181.83 245.215 180.43V170.17H243.145V169.87L243.865 169.75C244.485 169.61 245.015 169.41 245.455 169.15C245.915 168.89 246.365 168.54 246.805 168.1L249.265 165.37H249.565L249.475 169.57H252.835V170.17H249.445V180.97C249.445 181.67 249.595 182.2 249.895 182.56C250.215 182.92 250.615 183.1 251.095 183.1C251.515 183.1 251.885 183 252.205 182.8C252.525 182.58 252.845 182.29 253.165 181.93L253.465 182.23C253.065 182.91 252.515 183.45 251.815 183.85C251.115 184.25 250.265 184.45 249.265 184.45Z" fill="black"/>
<defs>
<linearGradient id="paint0_linear_62_873" x1="-5.71619e-06" y1="1080" x2="937.359" y2="537.653" gradientUnits="userSpaceOnUse">
<stop stop-color="#FDC500"/>
<stop offset="1" stop-color="#3BC700"/>
</linearGradient>
<linearGradient id="paint1_linear_62_873" x1="165.437" y1="335.549" x2="179.283" y2="327.128" gradientUnits="userSpaceOnUse">
<stop stop-color="white"/>
<stop offset="0.247" stop-color="#355881"/>
<stop offset="0.75" stop-color="#1F324E"/>
<stop offset="1" stop-color="#6AB50A"/>
</linearGradient>
<linearGradient id="paint2_linear_62_873" x1="172.403" y1="314.324" x2="162.167" y2="324.66" gradientUnits="userSpaceOnUse">
<stop stop-color="#005813"/>
<stop offset="0.033" stop-color="#F81000"/>
<stop offset="0.158" stop-color="#F93F00"/>
<stop offset="0.288" stop-color="#FA6800"/>
<stop offset="0.419" stop-color="#FA8900"/>
<stop offset="0.554" stop-color="#FBA300"/>
<stop offset="0.693" stop-color="#FBB500"/>
<stop offset="0.838" stop-color="#FBC000"/>
<stop offset="1" stop-color="#FCC400"/>
</linearGradient>
<linearGradient id="paint3_linear_62_873" x1="77.5" y1="944" x2="30" y2="1080" gradientUnits="userSpaceOnUse">
<stop stop-color="#FF5C00"/>
<stop offset="1" stop-color="#FFE073"/>
</linearGradient>
<linearGradient id="paint4_linear_62_873" x1="102" y1="299" x2="353.43" y2="-161.815" gradientUnits="userSpaceOnUse">
<stop stop-color="#5F63F2"/>
<stop offset="1" stop-color="#FF69A5"/>
</linearGradient>
<clipPath id="clip0_62_873">
<rect width="509" height="249" fill="white" transform="translate(67 497)"/>
</clipPath>
</defs>
</svg>
