<svg width="116" height="25" viewBox="0 0 116 25" fill="none" xmlns="http://www.w3.org/2000/svg">
<path d="M17.3697 7.28038C17.7891 7.72692 18.1683 8.20961 18.5029 8.72282C19.6421 10.4644 20.2391 12.5047 20.2185 14.5856C20.1978 16.6666 19.5603 18.6946 18.3867 20.4132C17.2131 22.1318 15.5561 23.4636 13.6254 24.2402C11.6947 25.0167 9.57699 25.2032 7.54028 24.7759V24.7712L7.54499 24.757C7.54721 24.7548 7.54499 24.7523 7.54721 24.7501C7.54472 24.7429 7.54721 24.7407 7.54721 24.736L8.36917 20.8188L11.8532 4.18018L11.8554 4.18267C11.9186 4.19431 11.9796 4.20844 12.0428 4.22479C12.1858 4.25528 12.3262 4.29269 12.469 4.3326C12.6025 4.36751 12.7336 4.40493 12.8647 4.44705C13.0587 4.5058 13.2527 4.57369 13.4406 4.64852C13.5272 4.679 13.6116 4.71179 13.6936 4.7469C13.8178 4.79595 13.9347 4.84749 14.0563 4.90375C14.1456 4.94116 14.2321 4.98689 14.3188 5.03012C14.3867 5.0606 14.4521 5.09358 14.52 5.1285C14.7824 5.26429 15.0399 5.40951 15.2929 5.56885C16.0571 6.04604 16.7553 6.62146 17.3697 7.28038Z" fill="url(#paint0_linear_139_4340)"/>
<g style="mix-blend-mode:multiply" opacity="0.16">
<g style="mix-blend-mode:multiply">
<path d="M15.2929 5.56739L7.54028 24.7744L11.8532 4.17871C13.073 4.43414 14.2377 4.90434 15.2929 5.56739Z" fill="#88EE03"/>
</g>
</g>
<path d="M12.6843 0.220006V0.224719C12.6821 0.226936 12.6843 0.23414 12.6796 0.238574C12.6812 0.245646 12.6805 0.253056 12.6774 0.259637L11.8555 4.18179L8.36921 20.8179C8.30353 20.8038 8.24257 20.7902 8.17938 20.7733C5.52249 20.1725 3.20484 18.5588 1.71929 16.2756C1.52275 15.9742 1.34146 15.6631 1.17613 15.3436C1.17613 15.3436 1.17364 15.3364 1.1692 15.327C1.15984 15.3138 1.15195 15.2997 1.14565 15.2848C0.256227 13.5373 -0.126843 11.5759 0.0397162 9.62208C0.206275 7.66831 0.91582 5.80001 2.08821 4.22824C3.26059 2.65646 4.84913 1.44381 6.6744 0.72725C8.49963 0.0106913 10.4889 -0.181226 12.4175 0.173172C12.4269 0.173172 12.4338 0.17539 12.4385 0.17539C12.5206 0.187306 12.6026 0.203656 12.6843 0.220006Z" fill="url(#paint1_linear_139_4340)"/>
<g style="mix-blend-mode:multiply" opacity="0.25">
<g style="mix-blend-mode:multiply">
<path d="M12.0426 4.22333C11.8486 5.35428 11.6095 6.65622 11.3401 8.04933C11.1999 8.76986 11.0616 9.51809 10.9047 10.2735C10.7479 11.029 10.5932 11.7977 10.4364 12.5637C10.2726 13.3316 10.1063 14.0973 9.94477 14.8536C9.77849 15.6052 9.61222 16.3473 9.45314 17.064C9.12752 18.4992 8.81382 19.8352 8.5281 20.9764C8.25097 22.119 7.99186 23.0673 7.82337 23.7324C7.67123 24.3144 7.56814 24.6747 7.54486 24.7556C7.54311 24.7485 7.54389 24.7411 7.54707 24.7345L11.8531 4.17871C11.9162 4.19063 11.9794 4.20698 12.0426 4.22333Z" fill="#88EE03"/>
</g>
</g>
<g style="mix-blend-mode:screen" opacity="0.7">
<g style="mix-blend-mode:screen">
<path d="M12.6794 0.239258C12.6811 0.24633 12.6803 0.25374 12.6772 0.26032L8.36903 20.8186C8.30335 20.8045 8.24238 20.7909 8.1792 20.774C8.37596 19.6456 8.61484 18.3389 8.88393 16.9458C9.02443 16.2253 9.16965 15.4801 9.31957 14.7213C9.47421 13.9675 9.63106 13.1971 9.78791 12.4314C9.9517 11.6635 10.118 10.8978 10.2795 10.1415C10.4364 9.38525 10.6121 8.64754 10.7712 7.93117C11.0943 6.49815 11.4105 5.1613 11.6937 4.01621C11.9708 2.87362 12.2324 1.92751 12.4009 1.26268C12.5531 0.679611 12.6562 0.31907 12.6794 0.239258Z" fill="black"/>
</g>
</g>
<g style="mix-blend-mode:screen" opacity="0.25">
<g style="mix-blend-mode:screen">
<path d="M16.1798 7.95459C16.6364 8.40764 17.043 8.90851 17.3925 9.44855C18.0558 10.4584 18.5132 11.5894 18.7383 12.7765C18.9634 13.9636 18.9518 15.1835 18.7043 16.3661C18.4567 17.5488 17.978 18.6709 17.2956 19.668C16.6132 20.6651 15.7406 21.5177 14.7279 22.1767C13.0719 23.2686 11.1043 23.7893 9.125 23.6593L9.14828 23.5485L16.1798 7.95459Z" fill="black"/>
</g>
</g>
<g style="mix-blend-mode:screen" opacity="0.25">
<g style="mix-blend-mode:screen">
<path d="M11.099 1.33645L11.0521 1.55649L2.89686 15.6544C2.87358 15.6217 2.84781 15.5865 2.82674 15.5516C2.16394 14.5409 1.70716 13.4092 1.48262 12.2215C1.25807 11.0339 1.27019 9.81358 1.51825 8.63061C1.76631 7.44761 2.24544 6.32525 2.92817 5.32782C3.61093 4.33042 4.48385 3.47759 5.49688 2.81825C7.15351 1.72851 9.12016 1.20832 11.099 1.33645Z" fill="black"/>
</g>
</g>
<g style="mix-blend-mode:multiply" opacity="0.16">
<g style="mix-blend-mode:multiply">
<path d="M17.3697 7.27979C17.7891 7.72632 18.1683 8.20902 18.5029 8.72223C19.6421 10.4638 20.2391 12.5041 20.2185 14.585C20.1978 16.666 19.5603 18.694 18.3867 20.4126C17.2131 22.1312 15.5561 23.463 13.6254 24.2396C11.6947 25.0161 9.57699 25.2026 7.54028 24.7753C8.08902 24.8502 8.6418 24.8916 9.19558 24.8994C10.2914 24.8977 11.3809 24.7344 12.4291 24.4148C13.4675 24.0986 14.4509 23.6239 15.3445 23.0075L15.9904 22.5203C16.2121 22.3635 16.3956 22.1623 16.6001 21.9866L16.8975 21.7125L17.169 21.4129C17.3544 21.2192 17.5287 21.0152 17.6911 20.8019L18.1689 20.1509L18.581 19.4581C18.7284 19.2308 18.8246 18.9756 18.9488 18.7392C19.0694 18.4987 19.1726 18.2499 19.2577 17.9946C19.4473 17.4908 19.5984 16.9734 19.7097 16.4468L19.8483 15.6484C19.876 15.3816 19.8929 15.1122 19.914 14.8431C19.9309 14.5733 19.9341 14.3029 19.9234 14.0328L19.9187 13.6254L19.8741 13.225C19.8204 12.6847 19.7289 12.1488 19.6002 11.6212L19.3614 10.8392C19.2888 10.5745 19.1624 10.3357 19.0662 10.0804C19.0147 9.95405 18.9679 9.82768 18.9116 9.70103L18.7176 9.33356C18.5843 9.09219 18.4682 8.83003 18.3219 8.60528C18.0324 8.14406 17.7143 7.70138 17.3697 7.27979Z" fill="#88EE03"/>
</g>
</g>
<g style="mix-blend-mode:screen" opacity="0.7">
<g style="mix-blend-mode:screen">
<path d="M12.4172 0.171785C12.375 0.167074 12.3094 0.162364 12.2232 0.155435C12.0544 0.13188 11.7995 0.124952 11.4808 0.101396C11.0975 0.0884514 10.7138 0.0955752 10.3312 0.122735C9.25657 0.197308 8.19798 0.424326 7.18725 0.79698C6.58616 1.02571 6.00569 1.30533 5.45216 1.63279C5.30944 1.71593 5.15952 1.81791 5.01209 1.90992C4.8763 1.99306 4.7405 2.11139 4.60222 2.20728C4.46365 2.31258 4.32842 2.41567 4.18653 2.51877C4.04797 2.62962 3.92437 2.74822 3.79079 2.86296C3.66193 2.9824 3.52614 3.09463 3.39977 3.21657L3.03673 3.60759C2.79286 3.86571 2.56606 4.13945 2.35778 4.42705C2.24612 4.56454 2.14363 4.70922 2.05099 4.8602L1.75835 5.30748C1.57822 5.60955 1.42358 5.93268 1.25953 6.24167C1.13066 6.56702 0.976032 6.881 0.866013 7.20635C0.812251 7.36791 0.7607 7.53197 0.70666 7.69326L0.62713 7.93685L0.5717 8.18045C0.501587 8.50829 0.410133 8.82421 0.372721 9.14734C0.317986 9.45897 0.282078 9.77362 0.265195 10.0896C0.23998 10.3885 0.232118 10.6887 0.241642 10.9886C0.238063 11.2694 0.251393 11.5502 0.281552 11.8294C0.312036 12.0985 0.342237 12.3584 0.370504 12.602C0.419555 12.8478 0.464178 13.075 0.506301 13.2948C0.595258 13.7255 0.727996 14.0885 0.811134 14.4C1.01482 14.9265 1.14147 15.2546 1.16724 15.327C1.17167 15.3364 1.17418 15.3436 1.17418 15.3436C1.17418 15.3436 1.16253 15.3225 1.14369 15.2848C0.254266 13.5373 -0.128795 11.5759 0.0377636 9.62208C0.204322 7.66832 0.913867 5.80002 2.08626 4.22824C3.25866 2.65646 4.84717 1.44381 6.67243 0.727249C8.49766 0.0106914 10.4869 -0.181226 12.4155 0.173172L12.4172 0.171785Z" fill="black"/>
</g>
</g>
<path d="M36.784 20.432C35.232 20.432 33.824 20.12 32.56 19.496C31.312 18.856 30.32 17.912 29.584 16.664C28.848 15.416 28.48 13.888 28.48 12.08C28.48 10.704 28.704 9.496 29.152 8.456C29.6 7.416 30.208 6.544 30.976 5.84C31.76 5.136 32.656 4.608 33.664 4.256C34.688 3.904 35.768 3.728 36.904 3.728C37.816 3.728 38.656 3.832 39.424 4.04C40.192 4.248 40.912 4.536 41.584 4.904L41.68 7.856H41.44L40.24 5.936C40.08 5.632 39.904 5.36 39.712 5.12C39.52 4.864 39.28 4.672 38.992 4.544C38.752 4.432 38.512 4.352 38.272 4.304C38.048 4.24 37.76 4.208 37.408 4.208C36.48 4.208 35.632 4.456 34.864 4.952C34.112 5.448 33.504 6.272 33.04 7.424C32.592 8.56 32.368 10.12 32.368 12.104C32.368 14.072 32.584 15.632 33.016 16.784C33.448 17.92 34.032 18.736 34.768 19.232C35.52 19.712 36.36 19.952 37.288 19.952C37.8 19.952 38.208 19.92 38.512 19.856C38.816 19.776 39.12 19.664 39.424 19.52C39.728 19.392 39.96 19.208 40.12 18.968C40.28 18.712 40.424 18.44 40.552 18.152L41.608 15.8H41.848L41.776 19.232C41.104 19.584 40.352 19.872 39.52 20.096C38.688 20.32 37.776 20.432 36.784 20.432ZM49.0129 20.36C47.7969 20.36 46.7409 20.112 45.8449 19.616C44.9489 19.104 44.2529 18.384 43.7569 17.456C43.2769 16.528 43.0369 15.44 43.0369 14.192C43.0369 12.944 43.2929 11.864 43.8049 10.952C44.3329 10.04 45.0449 9.336 45.9409 8.84C46.8529 8.344 47.8769 8.096 49.0129 8.096C50.1489 8.096 51.1649 8.344 52.0609 8.84C52.9569 9.32 53.6609 10.016 54.1729 10.928C54.7009 11.84 54.9649 12.928 54.9649 14.192C54.9649 15.456 54.7169 16.552 54.2209 17.48C53.7409 18.392 53.0529 19.104 52.1569 19.616C51.2769 20.112 50.2289 20.36 49.0129 20.36ZM49.0129 19.88C49.5729 19.88 50.0209 19.72 50.3569 19.4C50.6929 19.08 50.9329 18.512 51.0769 17.696C51.2369 16.88 51.3169 15.728 51.3169 14.24C51.3169 12.736 51.2369 11.576 51.0769 10.76C50.9329 9.944 50.6929 9.376 50.3569 9.056C50.0209 8.736 49.5729 8.576 49.0129 8.576C48.4529 8.576 47.9969 8.736 47.6449 9.056C47.3089 9.376 47.0609 9.944 46.9009 10.76C46.7569 11.576 46.6849 12.736 46.6849 14.24C46.6849 15.728 46.7569 16.88 46.9009 17.696C47.0609 18.512 47.3089 19.08 47.6449 19.4C47.9969 19.72 48.4529 19.88 49.0129 19.88ZM56.0191 20V19.76L56.3551 19.664C56.9151 19.504 57.1951 19.112 57.1951 18.488V10.976C57.1951 10.624 57.1391 10.368 57.0271 10.208C56.9151 10.032 56.6991 9.912 56.3791 9.848L56.0191 9.752V9.512L60.1231 8.12L60.3631 8.36L60.5551 9.8C61.1151 9.304 61.7471 8.896 62.4511 8.576C63.1551 8.256 63.8511 8.096 64.5391 8.096C65.5951 8.096 66.4031 8.384 66.9631 8.96C67.5391 9.536 67.8271 10.416 67.8271 11.6V18.512C67.8271 19.136 68.1311 19.528 68.7391 19.688L68.9551 19.76V20H63.2911V19.76L63.6031 19.664C64.1631 19.488 64.4431 19.096 64.4431 18.488V10.832C64.4431 9.808 63.9311 9.296 62.9071 9.296C62.2031 9.296 61.4351 9.648 60.6031 10.352V18.512C60.6031 19.136 60.8831 19.528 61.4431 19.688L61.6591 19.76V20H56.0191ZM69.8941 20V19.76L70.2301 19.664C70.7901 19.504 71.0701 19.112 71.0701 18.488V10.976C71.0701 10.624 71.0141 10.368 70.9021 10.208C70.7901 10.032 70.5741 9.912 70.2541 9.848L69.8941 9.752V9.512L73.9981 8.12L74.2381 8.36L74.4301 9.8C74.9901 9.304 75.6221 8.896 76.3261 8.576C77.0301 8.256 77.7261 8.096 78.4141 8.096C79.4701 8.096 80.2781 8.384 80.8381 8.96C81.4141 9.536 81.7021 10.416 81.7021 11.6V18.512C81.7021 19.136 82.0061 19.528 82.6141 19.688L82.8301 19.76V20H77.1661V19.76L77.4781 19.664C78.0381 19.488 78.3181 19.096 78.3181 18.488V10.832C78.3181 9.808 77.8061 9.296 76.7821 9.296C76.0781 9.296 75.3101 9.648 74.4781 10.352V18.512C74.4781 19.136 74.7581 19.528 75.3181 19.688L75.5341 19.76V20H69.8941ZM89.7931 8.096C90.8331 8.096 91.7211 8.312 92.4571 8.744C93.1931 9.16 93.7531 9.736 94.1371 10.472C94.5371 11.192 94.7371 12.016 94.7371 12.944C94.7371 13.12 94.7291 13.304 94.7131 13.496C94.6971 13.672 94.6651 13.832 94.6171 13.976H87.4651C87.4811 15.704 87.7851 16.952 88.3771 17.72C88.9851 18.472 89.8811 18.848 91.0651 18.848C91.8651 18.848 92.5131 18.72 93.0091 18.464C93.5051 18.208 93.9691 17.832 94.4011 17.336L94.6411 17.552C94.1451 18.432 93.4811 19.12 92.6491 19.616C91.8331 20.112 90.8491 20.36 89.6971 20.36C88.5611 20.36 87.5531 20.12 86.6731 19.64C85.7931 19.144 85.1051 18.44 84.6091 17.528C84.1131 16.616 83.8651 15.528 83.8651 14.264C83.8651 12.952 84.1531 11.84 84.7291 10.928C85.3051 10 86.0411 9.296 86.9371 8.816C87.8491 8.336 88.8011 8.096 89.7931 8.096ZM89.7211 8.576C89.2571 8.576 88.8571 8.72 88.5211 9.008C88.2011 9.28 87.9451 9.776 87.7531 10.496C87.5771 11.2 87.4811 12.2 87.4651 13.496H91.5691C91.7291 11.752 91.6651 10.496 91.3771 9.728C91.0891 8.96 90.5371 8.576 89.7211 8.576ZM101.885 20.36C100.797 20.36 99.8051 20.128 98.9091 19.664C98.0291 19.184 97.3251 18.496 96.7971 17.6C96.2851 16.688 96.0291 15.576 96.0291 14.264C96.0291 12.968 96.3091 11.864 96.8691 10.952C97.4451 10.024 98.2051 9.32 99.1491 8.84C100.109 8.344 101.157 8.096 102.293 8.096C103.221 8.096 104.005 8.248 104.645 8.552C105.285 8.856 105.773 9.256 106.109 9.752C106.445 10.232 106.613 10.736 106.613 11.264C106.613 11.712 106.477 12.064 106.205 12.32C105.933 12.56 105.581 12.68 105.149 12.68C104.685 12.68 104.309 12.512 104.021 12.176C103.733 11.84 103.565 11.4 103.517 10.856C103.501 10.504 103.509 10.208 103.541 9.968C103.573 9.712 103.573 9.456 103.541 9.2C103.477 8.928 103.373 8.752 103.229 8.672C103.101 8.576 102.917 8.528 102.677 8.528C101.701 8.528 100.941 8.952 100.397 9.8C99.8691 10.648 99.6051 12 99.6051 13.856C99.6051 15.472 99.9011 16.712 100.493 17.576C101.101 18.424 102.029 18.848 103.277 18.848C104.029 18.848 104.637 18.712 105.101 18.44C105.565 18.168 106.013 17.76 106.445 17.216L106.685 17.408C106.285 18.352 105.669 19.08 104.837 19.592C104.005 20.104 103.021 20.36 101.885 20.36ZM112.212 20.36C111.188 20.36 110.388 20.104 109.812 19.592C109.252 19.08 108.972 18.264 108.972 17.144V8.936H107.316V8.696L107.892 8.6C108.388 8.488 108.812 8.328 109.164 8.12C109.532 7.912 109.892 7.632 110.244 7.28L112.212 5.096H112.452L112.38 8.456H115.068V8.936H112.356V17.576C112.356 18.136 112.476 18.56 112.716 18.848C112.972 19.136 113.292 19.28 113.676 19.28C114.012 19.28 114.308 19.2 114.564 19.04C114.82 18.864 115.076 18.632 115.332 18.344L115.572 18.584C115.252 19.128 114.812 19.56 114.252 19.88C113.692 20.2 113.012 20.36 112.212 20.36Z" fill="black"/>
<defs>
<linearGradient id="paint0_linear_139_4340" x1="76.4362" y1="174.549" x2="90.2825" y2="166.128" gradientUnits="userSpaceOnUse">
<stop stop-color="white"/>
<stop offset="0.247" stop-color="#355881"/>
<stop offset="0.75" stop-color="#1F324E"/>
<stop offset="1" stop-color="#6AB50A"/>
</linearGradient>
<linearGradient id="paint1_linear_139_4340" x1="83.4027" y1="153.324" x2="73.1665" y2="163.66" gradientUnits="userSpaceOnUse">
<stop stop-color="#005813"/>
<stop offset="0.033" stop-color="#F81000"/>
<stop offset="0.158" stop-color="#F93F00"/>
<stop offset="0.288" stop-color="#FA6800"/>
<stop offset="0.419" stop-color="#FA8900"/>
<stop offset="0.554" stop-color="#FBA300"/>
<stop offset="0.693" stop-color="#FBB500"/>
<stop offset="0.838" stop-color="#FBC000"/>
<stop offset="1" stop-color="#FCC400"/>
</linearGradient>
</defs>
</svg>
