<svg width="20" height="16" viewBox="0 0 20 16" fill="none" xmlns="http://www.w3.org/2000/svg">
<path d="M17.7239 0.249354C17.5101 0.111023 17.2655 0.0273356 17.0118 0.00564818C16.758 -0.0160393 16.5029 0.0249373 16.2687 0.124976L8.59453 3.14736C8.41284 3.22131 8.21854 3.25932 8.02239 3.2593H3.10945C2.69711 3.2593 2.30166 3.42311 2.0101 3.71467C1.71853 4.00624 1.55473 4.40169 1.55473 4.81403V4.93841H0V8.66975H1.55473V8.83144C1.56447 9.23728 1.73256 9.62321 2.02308 9.90676C2.3136 10.1903 2.7035 10.349 3.10945 10.3489L4.97512 14.3041C5.10146 14.5704 5.30035 14.7957 5.54896 14.9541C5.79757 15.1126 6.08582 15.1976 6.3806 15.1996H7.16418C7.57436 15.1963 7.96662 15.0311 8.2555 14.7399C8.54439 14.4486 8.70648 14.0551 8.70647 13.6449V10.4981L16.2687 13.5205C16.4547 13.5945 16.653 13.6325 16.8532 13.6324C17.1638 13.6274 17.4663 13.5324 17.7239 13.3588C17.9285 13.2207 18.0972 13.0358 18.2162 12.8195C18.3351 12.6033 18.4009 12.3618 18.408 12.115V1.53045C18.4068 1.27736 18.3439 1.02837 18.2247 0.805117C18.1055 0.58186 17.9336 0.391083 17.7239 0.249354V0.249354ZM7.15174 4.81403V8.83144H3.10945V4.81403H7.15174ZM7.15174 13.6449H6.36816L4.83831 10.3489H7.15174V13.6449ZM9.16667 9.01801C9.01899 8.94254 8.86501 8.88012 8.70647 8.83144V4.72697C8.86349 4.69457 9.01745 4.6488 9.16667 4.59015L16.8532 1.53045V12.0777L9.16667 9.01801ZM18.4453 5.24935V8.35881C18.8576 8.35881 19.2531 8.19501 19.5446 7.90344C19.8362 7.61187 20 7.21642 20 6.80408C20 6.39174 19.8362 5.99629 19.5446 5.70472C19.2531 5.41315 18.8576 5.24935 18.4453 5.24935V5.24935Z" fill="#ADB4D2"/>
</svg>
