<svg width="61" height="60" viewBox="0 0 61 60" fill="none" xmlns="http://www.w3.org/2000/svg">
<path opacity="0.1" d="M50.774 0H10.1548C4.54646 0 0 4.47715 0 10V50C0 55.5228 4.54646 60 10.1548 60H50.774C56.3823 60 60.9288 55.5228 60.9288 50V10C60.9288 4.47715 56.3823 0 50.774 0Z" fill="#3BC700"/>
<path d="M30 26.2251V35.7502" stroke="#3BC700" stroke-width="1.5" stroke-linecap="round" stroke-linejoin="round"/>
<path d="M34.7671 30.9873H25.2329" stroke="#3BC700" stroke-width="1.5" stroke-linecap="round" stroke-linejoin="round"/>
<path fill-rule="evenodd" clip-rule="evenodd" d="M36.0914 18H23.9086C19.6619 18 17 21.0057 17 25.2607V36.7393C17 40.9943 19.6495 44 23.9086 44H36.0914C40.3505 44 43 40.9943 43 36.7393V25.2607C43 21.0057 40.3505 18 36.0914 18Z" stroke="#3BC700" stroke-width="1.5" stroke-linecap="round" stroke-linejoin="round"/>
</svg>
