<svg width="20" height="20" viewBox="0 0 20 20" fill="none" xmlns="http://www.w3.org/2000/svg">
<path d="M19.1922 13.7878C18.6747 13.7872 18.1785 13.5811 17.8128 13.2148C17.4472 12.8485 17.2419 12.352 17.2422 11.8344V7.24222C17.2422 5.32147 16.4792 3.47938 15.121 2.1212C13.7628 0.763018 11.9208 0 10 0C8.07924 0 6.23716 0.763018 4.87898 2.1212C3.5208 3.47938 2.75778 5.32147 2.75778 7.24222V11.8344C2.75807 12.352 2.55283 12.8485 2.18716 13.2148C1.8215 13.5811 1.32535 13.7872 0.807778 13.7878C0.593542 13.7878 0.38808 13.8729 0.236593 14.0244C0.0851049 14.1759 0 14.3813 0 14.5956C0 14.8098 0.0851049 15.0153 0.236593 15.1667C0.38808 15.3182 0.593542 15.4033 0.807778 15.4033H19.1922C19.4065 15.4033 19.6119 15.3182 19.7634 15.1667C19.9149 15.0153 20 14.8098 20 14.5956C20 14.3813 19.9149 14.1759 19.7634 14.0244C19.6119 13.8729 19.4065 13.7878 19.1922 13.7878ZM3.79222 13.7878C4.17297 13.2076 4.37503 12.5284 4.37333 11.8344V7.24222C4.37333 5.74994 4.96614 4.31877 6.02135 3.26357C7.07655 2.20836 8.50772 1.61556 10 1.61556C11.4923 1.61556 12.9234 2.20836 13.9787 3.26357C15.0339 4.31877 15.6267 5.74994 15.6267 7.24222V11.8344C15.6257 12.5273 15.8277 13.2052 16.2078 13.7844L3.79222 13.7878Z" fill="#9299B8"/>
<path d="M11.9955 17.5736C11.9037 17.5203 11.8023 17.4856 11.6971 17.4715C11.592 17.4574 11.485 17.4642 11.3825 17.4914C11.2799 17.5187 11.1837 17.5659 11.0994 17.6303C11.0151 17.6947 10.9443 17.7751 10.891 17.8669C10.8 18.0218 10.6701 18.1502 10.5142 18.2394C10.3583 18.3286 10.1818 18.3755 10.0021 18.3755C9.82252 18.3755 9.646 18.3286 9.49009 18.2394C9.33418 18.1502 9.20428 18.0218 9.11325 17.8669C9.00569 17.6816 8.82891 17.5466 8.62178 17.4915C8.41466 17.4365 8.19416 17.466 8.0088 17.5736C7.82345 17.6812 7.68841 17.858 7.6334 18.0651C7.57839 18.2722 7.6079 18.4927 7.71546 18.678C7.94818 19.0789 8.2821 19.4116 8.68378 19.6429C9.08547 19.8741 9.54086 19.9959 10.0044 19.9959C10.4679 19.9959 10.9232 19.8741 11.3249 19.6429C11.7266 19.4116 12.0605 19.0789 12.2933 18.678C12.3464 18.586 12.3808 18.4844 12.3946 18.379C12.4083 18.2737 12.4012 18.1666 12.3735 18.064C12.3459 17.9614 12.2982 17.8653 12.2334 17.7812C12.1685 17.697 12.0876 17.6265 11.9955 17.5736V17.5736Z" fill="#9299B8"/>
</svg>
