<svg width="20" height="20" viewBox="0 0 20 20" fill="none" xmlns="http://www.w3.org/2000/svg">
<path d="M9.99875 12.271C4.39183 12.271 0 14.8634 0 18.1732V19.1919C0 19.4062 0.0853228 19.6118 0.237198 19.7633C0.389074 19.9149 0.595061 20 0.809846 20C1.02463 20 1.23062 19.9149 1.38249 19.7633C1.53437 19.6118 1.61969 19.4062 1.61969 19.1919V18.1732C1.61969 15.8496 5.4566 13.8872 10 13.8872C14.5434 13.8872 18.3803 15.8496 18.3803 18.1732V19.1919C18.3803 19.4062 18.4656 19.6118 18.6175 19.7633C18.7694 19.9149 18.9754 20 19.1902 20C19.4049 20 19.6109 19.9149 19.7628 19.7633C19.9147 19.6118 20 19.4062 20 19.1919V18.1732C19.9987 14.8634 15.6057 12.271 9.99875 12.271Z" fill="#9299B8"/>
<path d="M14.884 4.16764C14.766 3.37318 14.4535 2.62001 13.9741 1.97487C13.4947 1.32972 12.8633 0.812515 12.1357 0.469062C11.4081 0.125608 10.6068 -0.033488 9.80292 0.00586729C8.999 0.0452226 8.21722 0.281814 7.52683 0.694683C6.83644 1.10755 6.25875 1.68395 5.84494 2.37282C5.43114 3.0617 5.19397 3.84177 5.15448 4.64394C5.115 5.44612 5.27439 6.24563 5.61855 6.97165C5.96272 7.69767 6.48101 8.32778 7.12754 8.80617C7.96656 9.43104 8.9855 9.76863 10.0325 9.76863C10.2761 9.76857 10.5193 9.7506 10.7603 9.71488C12.0438 9.52375 13.1988 8.83231 13.972 7.79231C14.7451 6.75231 15.0731 5.44872 14.884 4.16764V4.16764ZM10.5235 8.11621C9.88287 8.21157 9.22825 8.1152 8.6425 7.83929C8.05675 7.56337 7.56617 7.1203 7.23282 6.56613C6.89946 6.01197 6.73832 5.37159 6.76976 4.72602C6.8012 4.08045 7.02383 3.45869 7.40947 2.93939C7.79511 2.42009 8.32642 2.02657 8.93623 1.80863C9.54603 1.59069 10.2069 1.55812 10.8353 1.71502C11.4636 1.87193 12.0312 2.21126 12.4663 2.69011C12.9014 3.16896 13.1843 3.7658 13.2794 4.40513C13.3448 4.82964 13.3253 5.26289 13.222 5.67983C13.1186 6.09676 12.9334 6.48912 12.6771 6.83421C12.4209 7.1793 12.0986 7.47028 11.729 7.69033C11.3593 7.91038 10.9496 8.05512 10.5235 8.11621V8.11621Z" fill="#9299B8"/>
</svg>
