<svg width="20" height="20" viewBox="0 0 20 20" fill="none" xmlns="http://www.w3.org/2000/svg">
<path d="M6.22969 14.8125H12.7703V13.6875H6.22969V14.8125ZM6.22969 11.625H12.7703V10.5H6.22969V11.625ZM4.21875 18C3.89375 18 3.60937 17.8875 3.36562 17.6625C3.12187 17.4375 3 17.175 3 16.875V4.125C3 3.825 3.12187 3.5625 3.36562 3.3375C3.60937 3.1125 3.89375 3 4.21875 3H11.5516L16 7.10625V16.875C16 17.175 15.8781 17.4375 15.6344 17.6625C15.3906 17.8875 15.1063 18 14.7812 18H4.21875ZM10.9422 7.6125V4.125H4.21875V16.875H14.7812V7.6125H10.9422ZM4.21875 4.125V7.6125V4.125V16.875V4.125Z" fill="#3BC700"/>
</svg>
