<svg width="17" height="17" viewBox="0 0 17 17" fill="none" xmlns="http://www.w3.org/2000/svg">
<path d="M11.87 2.86548C11.2814 2.26194 10.5789 1.78127 9.80317 1.45134C9.02742 1.12141 8.19389 0.948785 7.35091 0.943485C6.50793 0.938185 5.67229 1.10031 4.89245 1.42046C4.11261 1.74061 3.4041 2.21242 2.80802 2.8085C2.21193 3.40459 1.74013 4.1131 1.41997 4.89294C1.09982 5.67277 0.937697 6.50842 0.942997 7.3514C0.948297 8.19438 1.12092 9.02791 1.45085 9.80366C1.78078 10.5794 2.26145 11.2819 2.86499 11.8705C3.45354 12.474 4.15606 12.9547 4.93181 13.2846C5.70756 13.6146 6.54109 13.7872 7.38407 13.7925C8.22705 13.7978 9.06269 13.6356 9.84253 13.3155C10.6224 12.9953 11.3309 12.5235 11.927 11.9275C12.5231 11.3314 12.9949 10.6229 13.315 9.84302C13.6352 9.06318 13.7973 8.22754 13.792 7.38456C13.7867 6.54158 13.6141 5.70804 13.2841 4.9323C12.9542 4.15655 12.4735 3.45402 11.87 2.86548ZM7.36999 12.5205C6.35065 12.5211 5.35404 12.2193 4.50622 11.6534C3.65839 11.0875 2.99745 10.2829 2.60701 9.3413C2.21656 8.3997 2.11414 7.36346 2.31271 6.36365C2.51128 5.36384 3.00192 4.44539 3.72256 3.72447C4.4432 3.00355 5.36147 2.51255 6.3612 2.31359C7.36093 2.11463 8.39721 2.21664 9.33896 2.60673C10.2807 2.99681 11.0856 3.65744 11.6518 4.50504C12.2181 5.35264 12.5202 6.34914 12.52 7.36848C12.5184 8.73439 11.9751 10.0439 11.0093 11.0097C10.0434 11.9756 8.7339 12.5189 7.36799 12.5205H7.36999Z" fill="#9299B8"/>
<path d="M15.862 15.0035L11.868 11.0095C11.8126 10.9489 11.7454 10.9003 11.6707 10.8663C11.5959 10.8324 11.515 10.814 11.4329 10.8122C11.3508 10.8103 11.2692 10.8252 11.193 10.8557C11.1168 10.8863 11.0476 10.932 10.9895 10.9901C10.9315 11.0481 10.8858 11.1174 10.8552 11.1936C10.8246 11.2698 10.8098 11.3514 10.8116 11.4335C10.8134 11.5156 10.8318 11.5964 10.8658 11.6712C10.8997 11.746 10.9484 11.8131 11.009 11.8685L15.003 15.8625C15.1185 15.9682 15.2704 16.0253 15.4269 16.0218C15.5835 16.0184 15.7327 15.9547 15.8434 15.8439C15.9541 15.7332 16.0178 15.584 16.0213 15.4275C16.0248 15.2709 15.9677 15.1191 15.862 15.0035Z" fill="#9299B8"/>
</svg>
