<svg width="39" height="37" viewBox="0 0 39 37" fill="none" xmlns="http://www.w3.org/2000/svg">
<path opacity="0.5" d="M3.67972 15.4743C3.37955 15.1749 3.21101 14.7694 3.21101 14.3468C3.21101 13.9241 3.37955 13.5187 3.67972 13.2193L13.252 3.70656L11.5798 2.0422C11.4111 1.8749 11.2961 1.66155 11.2496 1.42922C11.203 1.19689 11.2269 0.956054 11.3183 0.737262C11.4097 0.51847 11.5644 0.331588 11.7628 0.200327C11.9612 0.0690664 12.1944 -0.000656621 12.4327 4.66062e-06H18.0447C18.3638 4.66062e-06 18.6698 0.125976 18.8954 0.350206C19.121 0.574436 19.2477 0.878558 19.2477 1.19567V6.77463C19.2479 7.01132 19.1774 7.24274 19.0452 7.43957C18.9129 7.63641 18.7249 7.7898 18.5048 7.88033C18.2848 7.97085 18.0427 7.99443 17.8091 7.94808C17.5756 7.90173 17.3612 7.78754 17.193 7.61996L15.5208 5.95799L5.94857 15.4743C5.64733 15.7726 5.2394 15.9401 4.81415 15.9401C4.38889 15.9401 3.98096 15.7726 3.67972 15.4743Z" fill="#3BC700"/>
<path d="M11.2284 22.7141V31.8801H1.60446V22.7141C1.60446 22.1858 1.81562 21.6792 2.19148 21.3056C2.56734 20.932 3.07711 20.7222 3.60866 20.7222H9.22305C9.75461 20.7225 10.2643 20.9324 10.6403 21.3059C11.0163 21.6793 11.2278 22.1858 11.2284 22.7141V22.7141Z" fill="#3BC700"/>
<path d="M24.0598 16.3387V31.8823H14.4358V16.3387C14.4358 15.8104 14.647 15.3037 15.0228 14.9301C15.3987 14.5566 15.9085 14.3467 16.44 14.3467H22.0532C22.3166 14.3462 22.5776 14.3974 22.8211 14.4973C23.0646 14.5972 23.2859 14.7439 23.4723 14.9289C23.6587 15.114 23.8065 15.3337 23.9073 15.5756C24.0081 15.8175 24.06 16.0768 24.0598 16.3387V16.3387Z" fill="#3BC700"/>
<path d="M36.891 9.96121V31.8825H27.267V9.96121C27.267 9.69952 27.3189 9.4404 27.4197 9.19864C27.5205 8.95689 27.6682 8.73724 27.8544 8.55225C28.0407 8.36726 28.2618 8.22056 28.5051 8.12053C28.7484 8.02049 29.0091 7.96908 29.2724 7.96924H34.888C35.4193 7.96956 35.9288 8.17956 36.3044 8.5531C36.68 8.92663 36.891 9.43312 36.891 9.96121V9.96121Z" fill="#3BC700"/>
<path opacity="0.5" d="M37.2929 36.6653H1.203C0.883943 36.6653 0.577956 36.5393 0.35235 36.3151C0.126744 36.0908 0 35.7867 0 35.4696C0 35.1525 0.126744 34.8484 0.35235 34.6241C0.577956 34.3999 0.883943 34.2739 1.203 34.2739H37.2929C37.612 34.2739 37.918 34.3999 38.1436 34.6241C38.3692 34.8484 38.4959 35.1525 38.4959 35.4696C38.4959 35.7867 38.3692 36.0908 38.1436 36.3151C37.918 36.5393 37.612 36.6653 37.2929 36.6653Z" fill="#3BC700"/>
</svg>
