<svg width="9" height="12" viewBox="0 0 9 12" fill="none" xmlns="http://www.w3.org/2000/svg">
<path d="M8.56309 4.75978L5.22588 1.25978C5.06502 1.09155 4.84712 0.99707 4.61994 0.99707C4.39277 0.99707 4.17487 1.09155 4.014 1.25978L0.676795 4.75978C0.529896 4.93113 0.45126 5.15505 0.45709 5.3854C0.462919 5.61575 0.552774 5.83498 0.708134 5.99792C0.863494 6.16086 1.07251 6.25509 1.29215 6.2612C1.51178 6.26731 1.72529 6.18484 1.88868 6.03078L3.75942 4.06978V10.1178C3.75942 10.3565 3.84983 10.5854 4.01076 10.7542C4.17169 10.923 4.38997 11.0178 4.61756 11.0178C4.84515 11.0178 5.06342 10.923 5.22436 10.7542C5.38529 10.5854 5.47569 10.3565 5.47569 10.1178V4.06978L7.3455 6.03078C7.50636 6.19901 7.72426 6.29349 7.95144 6.29349C8.17861 6.29349 8.39651 6.19901 8.55738 6.03078C8.71855 5.86286 8.80966 5.63477 8.81073 5.39651C8.81181 5.15826 8.72275 4.92928 8.56309 4.75978Z" fill="#20C997"/>
</svg>
