<svg width="20" height="20" viewBox="0 0 20 20" fill="none" xmlns="http://www.w3.org/2000/svg">
<path fill-rule="evenodd" clip-rule="evenodd" d="M9.42857 9.3998V8.20764C9.42857 7.87646 9.68457 7.60767 10 7.60767C10.6331 7.60767 11.1469 7.06829 11.1469 6.40411C11.1469 5.73934 10.6331 5.19996 10 5.19996C9.36686 5.19996 8.85314 5.73934 8.85314 6.40411C8.85314 6.7353 8.59714 7.00409 8.28171 7.00409C7.96629 7.00409 7.71029 6.7353 7.71029 6.40411C7.71029 5.07696 8.73657 4 10 4C11.2634 4 12.2897 5.07696 12.2897 6.40411C12.2897 7.52367 11.5589 8.46563 10.5714 8.73202V9.3998H11.1429C11.4583 9.3998 11.7143 9.66859 11.7143 9.99978V10.6124L16.4589 12.3181C17.3806 12.6493 18 13.5594 18 14.5824C18 14.583 18 14.5836 18 14.5842C18 15.0024 17.824 15.399 17.5194 15.6678C17.2149 15.9365 16.8126 16.0506 16.4206 15.9792L10 14.8086L3.57943 15.9792C3.18743 16.0506 2.78514 15.9365 2.48057 15.6678C2.176 15.399 2 15.0024 2 14.5842C2 14.5836 2 14.583 2 14.5824C2 13.5594 2.61943 12.6493 3.54114 12.3181L8.28571 10.6124V9.99978C8.28571 9.66859 8.54171 9.3998 8.85714 9.3998H9.42857ZM10.5714 10.5998H9.42857V11.0407C9.42857 11.2975 9.27314 11.5255 9.04229 11.6083C9.04229 11.6083 5.72686 12.8005 3.91143 13.4532C3.452 13.6182 3.14286 14.0724 3.14286 14.5824C3.14286 14.583 3.14286 14.5836 3.14286 14.5842C3.14286 14.6478 3.16971 14.7084 3.216 14.7498C3.26286 14.7906 3.324 14.808 3.384 14.7972C5.36686 14.4354 9.90229 13.6086 9.90229 13.6086C9.96686 13.5966 10.0331 13.5966 10.0977 13.6086C10.0977 13.6086 14.6331 14.4354 16.616 14.7972C16.676 14.808 16.7371 14.7906 16.784 14.7498C16.8303 14.7084 16.8571 14.6478 16.8571 14.5842C16.8571 14.5836 16.8571 14.583 16.8571 14.5824C16.8571 14.0724 16.548 13.6182 16.0886 13.4532C14.2731 12.8005 10.9577 11.6083 10.9577 11.6083C10.7269 11.5255 10.5714 11.2975 10.5714 11.0407V10.5998Z" fill="#3BC700"/>
</svg>
